<svg width="1803" height="1201" viewBox="0 0 1803 1201" fill="none" xmlns="http://www.w3.org/2000/svg">
<path d="M102.934 1156.53C102.934 1156.53 -198.396 804.377 230.074 691.237C658.544 578.097 771.444 481.237 974.004 188.067C1176.56 -105.103 2048.1 -26.6926 1693.59 1170.07L102.934 1156.53Z" fill="url(#paint0_linear_153_437)"/>
<path d="M209 524C378.686 643.685 722.801 359.194 846.802 150.429C870.747 110.116 861.216 53.112 825.458 22.7907C789.701 -7.53052 731.917 -7.60831 696.082 22.6265C636.76 72.6635 558.099 92.3878 481.779 106.286C405.46 120.185 326.678 130.281 257.66 165.788C188.643 201.295 129.935 269.216 131.015 346.825C132.095 424.435 132.186 478.185 209 524Z" fill="#FFC524"/>
<path d="M1664.93 750.657H1336.93V1144.15H1664.93V750.657Z" fill="#CCDEFF"/>
<path d="M1438.51 771.247H1357.51V786.247H1438.51V771.247Z" fill="#E2EEFC"/>
<path d="M1536.51 771.247H1455.51V786.247H1536.51V771.247Z" fill="#E2EEFC"/>
<path d="M1632.51 771.247H1551.51V786.247H1632.51V771.247Z" fill="#E2EEFC"/>
<path d="M1439.51 798.247H1358.51V813.247H1439.51V798.247Z" fill="#E2EEFC"/>
<path d="M1537.51 798.247H1456.51V813.247H1537.51V798.247Z" fill="#E2EEFC"/>
<path d="M1633.51 798.247H1552.51V813.247H1633.51V798.247Z" fill="#E2EEFC"/>
<path d="M1439.51 825.247H1358.51V840.247H1439.51V825.247Z" fill="#E2EEFC"/>
<path d="M1537.51 825.247H1456.51V840.247H1537.51V825.247Z" fill="#E2EEFC"/>
<path d="M1633.51 825.247H1552.51V840.247H1633.51V825.247Z" fill="#E2EEFC"/>
<path d="M1440.51 852.247H1359.51V867.247H1440.51V852.247Z" fill="#E2EEFC"/>
<path d="M1538.51 852.247H1457.51V867.247H1538.51V852.247Z" fill="#E2EEFC"/>
<path d="M1634.51 852.247H1553.51V867.247H1634.51V852.247Z" fill="#E2EEFC"/>
<path d="M1441.51 879.247H1360.51V894.247H1441.51V879.247Z" fill="#E2EEFC"/>
<path d="M1539.51 879.247H1458.51V894.247H1539.51V879.247Z" fill="#E2EEFC"/>
<path d="M1635.51 879.247H1554.51V894.247H1635.51V879.247Z" fill="#E2EEFC"/>
<path d="M1441.51 906.247H1360.51V921.247H1441.51V906.247Z" fill="#E2EEFC"/>
<path d="M1539.51 906.247H1458.51V921.247H1539.51V906.247Z" fill="#E2EEFC"/>
<path d="M1635.51 906.247H1554.51V921.247H1635.51V906.247Z" fill="#E2EEFC"/>
<path d="M1635.51 947.397H1360.51V1047.4H1635.51V947.397Z" fill="#E2EEFC"/>
<path d="M1672.29 661.997H1570.29V1144.15H1672.29V661.997Z" fill="#CCDEFF"/>
<path d="M1692.64 706.147H1662.64V1144.15H1692.64V706.147Z" fill="#CCDEFF"/>
<path d="M345.854 891.157H187.854V1145.16H345.854V891.157Z" fill="#CCDEFF"/>
<path d="M321.914 916.237H204.414V939.237H321.914V916.237Z" fill="#E2EEFC"/>
<path d="M321.914 954.657H204.414V977.657H321.914V954.657Z" fill="#E2EEFC"/>
<path d="M321.975 993.067H204.475V1016.07H321.975V993.067Z" fill="#E2EEFC"/>
<path d="M321.975 1030.7H204.475V1053.7H321.975V1030.7Z" fill="#E2EEFC"/>
<path d="M460.954 810.157H302.954V1145.16H460.954V810.157Z" fill="#CCDEFF"/>
<path d="M799.064 876.157H445.954V1145.16H799.064V876.157Z" fill="#CCDEFF"/>
<path d="M187.854 996.157H99.8545V1145.16H187.854V996.157Z" fill="#CCDEFF"/>
<path d="M507.584 750.017H504.584V876.157H507.584V750.017Z" fill="#CCDEFF"/>
<path d="M541.265 779.057H538.265V876.157H541.265V779.057Z" fill="#CCDEFF"/>
<path d="M480.994 729.887H473.994V876.157H480.994V729.887Z" fill="#CCDEFF"/>
<path d="M235.404 854.747H206.404V891.157H235.404V854.747Z" fill="#CCDEFF"/>
<path d="M377.954 770.807H314.954V810.147H377.954V770.807Z" fill="#CCDEFF"/>
<path d="M433.064 729.887H406.064V810.157H433.064V729.887Z" fill="#CCDEFF"/>
<path d="M275.225 803.017H251.225V891.157H275.225V803.017Z" fill="#CCDEFF"/>
<path d="M134.354 1010.66H110.854V1034.16H134.354V1010.66Z" fill="#E2EEFC"/>
<path d="M172.854 1010.66H149.354V1034.16H172.854V1010.66Z" fill="#E2EEFC"/>
<path d="M134.354 1050.16H110.854V1073.66H134.354V1050.16Z" fill="#E2EEFC"/>
<path d="M172.854 1050.16H149.354V1073.66H172.854V1050.16Z" fill="#E2EEFC"/>
<path d="M134.354 1089.66H110.854V1113.16H134.354V1089.66Z" fill="#E2EEFC"/>
<path d="M172.854 1089.66H149.354V1113.16H172.854V1089.66Z" fill="#E2EEFC"/>
<path d="M330.975 831.447H321.975V1134.45H330.975V831.447Z" fill="#E2EEFC"/>
<path d="M370.975 831.447H361.975V1134.45H370.975V831.447Z" fill="#E2EEFC"/>
<path d="M406.984 831.447H397.984V1134.45H406.984V831.447Z" fill="#E2EEFC"/>
<path d="M444.994 831.447H435.994V1134.45H444.994V831.447Z" fill="#E2EEFC"/>
<path d="M750.515 878.867H592.515V1132.87H750.515V878.867Z" fill="#CCDEFF"/>
<path d="M726.584 903.957H609.084V926.957H726.584V903.957Z" fill="#E2EEFC"/>
<path d="M726.584 942.367H609.084V965.367H726.584V942.367Z" fill="#E2EEFC"/>
<path d="M726.645 980.787H609.145V1003.79H726.645V980.787Z" fill="#E2EEFC"/>
<path d="M726.645 1018.42H609.145V1041.42H726.645V1018.42Z" fill="#E2EEFC"/>
<path d="M865.624 797.867H707.624V1132.87H865.624V797.867Z" fill="#CCDEFF"/>
<path d="M1203.73 863.867H850.624V1132.87H1203.73V863.867Z" fill="#CCDEFF"/>
<path d="M592.515 983.867H504.515V1132.87H592.515V983.867Z" fill="#CCDEFF"/>
<path d="M912.254 737.738H909.254V863.877H912.254V737.738Z" fill="#CCDEFF"/>
<path d="M945.935 766.767H942.935V863.867H945.935V766.767Z" fill="#CCDEFF"/>
<path d="M885.664 717.597H878.664V863.867H885.664V717.597Z" fill="#CCDEFF"/>
<path d="M640.074 842.467H611.074V878.877H640.074V842.467Z" fill="#CCDEFF"/>
<path d="M782.624 758.527H719.624V797.867H782.624V758.527Z" fill="#CCDEFF"/>
<path d="M837.725 717.597H810.725V797.867H837.725V717.597Z" fill="#CCDEFF"/>
<path d="M679.895 790.737H655.895V878.877H679.895V790.737Z" fill="#CCDEFF"/>
<path d="M539.024 998.367H515.524V1021.87H539.024V998.367Z" fill="#E2EEFC"/>
<path d="M577.524 998.367H554.024V1021.87H577.524V998.367Z" fill="#E2EEFC"/>
<path d="M539.024 1037.87H515.524V1061.37H539.024V1037.87Z" fill="#E2EEFC"/>
<path d="M577.524 1037.87H554.024V1061.37H577.524V1037.87Z" fill="#E2EEFC"/>
<path d="M539.024 1077.37H515.524V1100.87H539.024V1077.37Z" fill="#E2EEFC"/>
<path d="M577.524 1077.37H554.024V1100.87H577.524V1077.37Z" fill="#E2EEFC"/>
<path d="M735.645 819.157H726.645V1122.16H735.645V819.157Z" fill="#E2EEFC"/>
<path d="M775.645 819.157H766.645V1122.16H775.645V819.157Z" fill="#E2EEFC"/>
<path d="M811.654 819.157H802.654V1122.16H811.654V819.157Z" fill="#E2EEFC"/>
<path d="M849.664 819.157H840.664V1122.16H849.664V819.157Z" fill="#E2EEFC"/>
<path d="M1154.98 856.707H996.984V1110.71H1154.98V856.707Z" fill="#CCDEFF"/>
<path d="M1131.05 881.797H1013.55V904.797H1131.05V881.797Z" fill="#E2EEFC"/>
<path d="M1131.05 920.207H1013.55V943.207H1131.05V920.207Z" fill="#E2EEFC"/>
<path d="M1131.11 958.617H1013.61V981.617H1131.11V958.617Z" fill="#E2EEFC"/>
<path d="M1131.11 996.257H1013.61V1019.26H1131.11V996.257Z" fill="#E2EEFC"/>
<path d="M1270.08 775.707H1112.08V1110.71H1270.08V775.707Z" fill="#CCDEFF"/>
<path d="M1608.19 841.707H1255.08V1110.71H1608.19V841.707Z" fill="#CCDEFF"/>
<path d="M996.984 961.707H908.984V1110.71H996.984V961.707Z" fill="#CCDEFF"/>
<path d="M1316.72 715.567H1313.72V841.707H1316.72V715.567Z" fill="#CCDEFF"/>
<path d="M1350.4 744.607H1347.4V841.707H1350.4V744.607Z" fill="#CCDEFF"/>
<path d="M1290.13 695.438H1283.13V841.708H1290.13V695.438Z" fill="#CCDEFF"/>
<path d="M1044.54 820.297H1015.54V856.707H1044.54V820.297Z" fill="#CCDEFF"/>
<path d="M1187.09 736.367H1124.09V775.707H1187.09V736.367Z" fill="#CCDEFF"/>
<path d="M1242.19 695.438H1215.19V775.708H1242.19V695.438Z" fill="#CCDEFF"/>
<path d="M1084.36 768.577H1060.36V856.717H1084.36V768.577Z" fill="#CCDEFF"/>
<path d="M943.484 976.207H919.984V999.707H943.484V976.207Z" fill="#E2EEFC"/>
<path d="M981.984 976.207H958.484V999.707H981.984V976.207Z" fill="#E2EEFC"/>
<path d="M943.484 1015.71H919.984V1039.21H943.484V1015.71Z" fill="#E2EEFC"/>
<path d="M981.984 1015.71H958.484V1039.21H981.984V1015.71Z" fill="#E2EEFC"/>
<path d="M943.484 1055.21H919.984V1078.71H943.484V1055.21Z" fill="#E2EEFC"/>
<path d="M981.984 1055.21H958.484V1078.71H981.984V1055.21Z" fill="#E2EEFC"/>
<path d="M1140.11 796.997H1131.11V1100H1140.11V796.997Z" fill="#E2EEFC"/>
<path d="M1180.11 796.997H1171.11V1100H1180.11V796.997Z" fill="#E2EEFC"/>
<path d="M1216.12 796.997H1207.12V1100H1216.12V796.997Z" fill="#E2EEFC"/>
<path d="M1254.12 796.997H1245.12V1100H1254.12V796.997Z" fill="#E2EEFC"/>
<path d="M1336.93 1021.7H1174.93V1145.01H1336.93V1021.7Z" fill="#CCDEFF"/>
<path d="M1488.98 1113.89H1482.98V1119.89H1488.98V1113.89Z" fill="#CCDEFF"/>
<path d="M9.76465 1170.06C9.76465 1162.1 12.9254 1154.47 18.5514 1148.84C24.1775 1143.22 31.8082 1140.06 39.7647 1140.06H1767.76C1775.72 1140.06 1783.35 1143.22 1788.98 1148.84C1794.6 1154.47 1797.76 1162.1 1797.76 1170.06C1797.76 1178.01 1794.6 1185.64 1788.98 1191.27C1783.35 1196.9 1775.72 1200.06 1767.76 1200.06H39.7647C35.825 1200.06 31.9239 1199.28 28.2841 1197.77C24.6444 1196.27 21.3372 1194.06 18.5514 1191.27C15.7657 1188.48 13.5559 1185.18 12.0483 1181.54C10.5406 1177.9 9.76465 1174 9.76465 1170.06Z" fill="#1A1A35"/>
<path d="M529.114 753.917V657.627C529.114 654.71 530.273 651.912 532.336 649.849C534.399 647.786 537.197 646.627 540.114 646.627H551.114V753.917H529.114Z" fill="#1A1A35"/>
<path d="M447.564 662.728C450.874 662.538 450.684 663.728 453.114 665.978C454.053 666.932 454.797 668.059 455.304 669.298C458.03 675.137 459.119 681.607 458.454 688.018C464.669 682.462 471.847 678.09 479.634 675.118C476.154 670.298 474.284 664.518 472.724 658.778C472.256 656.801 471.586 654.877 470.724 653.038C470.336 652.182 469.75 651.432 469.014 650.848C467.639 650.041 466.005 649.798 464.454 650.168C460.244 650.818 456.454 652.948 452.814 655.168C450.054 656.888 447.358 658.701 444.724 660.608C443.804 661.278 447.614 662.088 447.534 663.228" fill="#FBB089"/>
<path d="M458.885 739.277C458.885 739.277 414.495 765.097 403.455 757.377C403.455 757.377 370.165 750.917 351.575 666.707C351.025 664.247 350.495 661.707 349.975 659.107L362.775 653.827C362.775 653.827 365.015 656.517 368.575 661.087C378.275 673.537 397.775 699.947 408.575 724.087C408.575 724.087 442.455 692.167 463.645 684.667L458.885 739.277Z" fill="#E44531"/>
<path d="M457.184 690.517C456.755 690.585 456.35 690.763 456.011 691.034C455.671 691.305 455.408 691.66 455.248 692.064C455.087 692.467 455.035 692.906 455.096 693.336C455.156 693.767 455.328 694.174 455.594 694.517C453.034 695.117 452.004 698.147 451.454 700.717C443.324 738.717 444.344 777.947 442.374 816.717C442.224 822.433 441.554 828.123 440.374 833.717C448.837 834.22 457.329 833.845 465.714 832.597C472.234 831.597 478.714 830.117 485.344 830.497C491.344 830.837 497.114 832.727 503.014 833.807C512.084 835.458 521.397 835.206 530.364 833.067C532.474 826.067 532.144 818.497 531.364 811.177C529.214 790.307 523.754 769.947 518.364 749.677C516.054 741.057 513.714 732.377 509.924 724.287C507.531 719.417 504.881 714.677 501.984 710.087L483.424 679.517C482.987 678.574 482.233 677.813 481.294 677.367C479.884 676.907 478.474 677.937 477.294 678.867C470.56 684.293 463.023 688.638 454.954 691.747" fill="#F75C3D"/>
<path d="M481.754 668.988C471.308 674.51 461.254 680.744 451.664 687.647C452.768 689.298 453.424 691.208 453.568 693.189C453.712 695.17 453.338 697.154 452.484 698.948C463.637 689.559 475.771 681.402 488.674 674.618C486.317 672.703 483.864 670.911 481.324 669.247" fill="#38385C"/>
<path d="M600.725 756.087H406.765V860.007H600.725V756.087Z" fill="#FEBE3D"/>
<path d="M455.725 756.087H406.765V860.007H455.725V756.087Z" fill="#F8A23A"/>
<path d="M593.694 762.067H546.614V772.267H593.694V762.067Z" fill="white"/>
<path d="M593.694 776.017H546.614V786.217H593.694V776.017Z" fill="white"/>
<path d="M473.195 678.247L482.895 674.827C482.895 674.827 486.165 671.187 510.195 694.537C534.225 717.887 569.575 772.127 569.575 772.127L521.885 853.477L506.275 843.477L527.535 771.177C527.535 771.177 415.805 653.957 496.775 682.227" fill="#E44531"/>
<path d="M506.445 842.917C502.765 843.917 499.865 845.917 496.615 847.917C496.283 848.089 495.985 848.32 495.735 848.597C495.487 848.964 495.323 849.38 495.255 849.817C494.253 854.105 492.728 858.252 490.715 862.167C494.843 863.299 499.088 863.946 503.365 864.097C503.921 864.152 504.482 864.094 505.015 863.927C505.676 863.622 506.235 863.133 506.625 862.517C507.633 861.177 508.476 859.72 509.135 858.177C513.975 857.177 518.455 856.967 521.855 853.507C517.545 851.507 513.715 847.377 509.655 844.887C508.614 844.143 507.521 843.475 506.385 842.887" fill="#FBB089"/>
<path d="M484.274 613.507C484.744 613.407 485.204 613.287 485.664 613.157C485.204 613.287 484.734 613.397 484.274 613.507Z" fill="#E1C2B0"/>
<path d="M431.164 638.057C431.097 639.107 431.117 640.161 431.224 641.208C431.694 646.308 433.284 648.797 435.324 649.757C435.47 649.828 435.62 649.888 435.774 649.938C436.969 650.322 438.249 650.357 439.464 650.037C438.994 646.807 438.574 643.707 438.274 641.037C438.054 639.117 437.874 637.398 437.764 635.968C437.074 636.448 434.624 633.657 434.624 633.657C432.534 634.057 431.484 635.947 431.164 638.057Z" fill="#E88A78"/>
<path d="M454.784 667.807C456.404 668.317 458.904 664.298 460.194 664.608C461.854 665.008 463.114 665.248 463.694 665.358H463.824V665.438L463.914 665.377H464.024V665.297C464.324 665.117 464.964 664.717 465.824 664.147C466.404 663.767 467.084 663.297 467.824 662.777C469.154 661.777 472.914 662.008 474.464 660.688C474.754 663.168 474.014 664.167 475.594 667.547C475.326 667.877 475.039 668.191 474.734 668.488C473.793 669.433 472.735 670.253 471.584 670.927C469.951 671.897 468.161 672.574 466.294 672.927C464.685 673.229 463.041 673.293 461.414 673.118C459.826 672.945 458.274 672.527 456.814 671.877C456.464 671.717 456.504 671.467 456.164 671.277C456.624 668.987 457.094 674.797 454.784 667.807Z" fill="#E88A78"/>
<path d="M482.234 651.307C483.651 652.094 485.27 652.443 486.884 652.307C487.299 652.25 487.706 652.143 488.094 651.987C490.094 651.157 491.854 648.857 492.864 644.097C493.944 639.007 492.864 636.947 491.164 636.357C490.949 636.571 490.695 636.741 490.414 636.857C489.474 637.787 485.804 637.957 485.214 638.997C485.114 639.517 484.994 640.067 484.864 640.647C484.814 640.907 484.754 641.167 484.694 641.437L484.604 641.837C484.544 642.107 484.474 642.377 484.414 642.667V642.787C484.294 643.287 484.174 643.787 484.054 644.327L483.924 644.857C483.924 644.857 483.924 644.857 483.924 644.917C483.854 645.187 483.784 645.467 483.724 645.737C483.664 646.007 483.624 646.157 483.564 646.367C483.114 647.967 482.694 649.617 482.234 651.307Z" fill="#E88A78"/>
<path d="M445.635 628.427L457.635 626.027C457.285 625.839 456.92 625.678 456.545 625.547C454.909 624.976 453.154 624.835 451.448 625.138C449.743 625.441 448.144 626.178 446.805 627.277C446.375 627.619 445.983 628.004 445.635 628.427Z" fill="#FFECE6"/>
<path d="M437.765 635.938C437.885 637.367 438.055 639.087 438.275 641.007C438.585 643.707 438.995 646.797 439.465 650.007C439.675 651.457 439.905 652.937 440.145 654.417C440.645 657.527 443.065 660.477 446.045 663.017C447.93 664.607 449.936 666.048 452.045 667.328C453.495 668.218 454.875 668.978 456.045 669.588C457.555 670.378 458.725 670.917 459.255 671.157L459.375 671.218H459.475H459.585C459.915 671.108 460.585 670.877 461.585 670.537C462.235 670.307 463.015 670.018 463.855 669.688C465.375 669.087 467.155 668.327 468.975 667.417C471.262 666.296 473.435 664.957 475.465 663.417C477.965 661.497 479.955 659.257 480.665 656.767C481.195 654.907 481.665 653.057 482.175 651.257C482.685 649.457 483.045 647.908 483.435 646.348C483.435 646.138 483.545 645.928 483.595 645.718C483.645 645.508 483.735 645.157 483.795 644.897C483.795 644.897 483.795 644.898 483.795 644.838C483.795 644.658 483.885 644.477 483.925 644.307C484.055 643.777 484.175 643.307 484.285 642.767V642.647C484.345 642.367 484.415 642.088 484.475 641.818L484.565 641.417C484.625 641.147 484.685 640.887 484.735 640.627C484.865 640.047 484.985 639.488 485.085 638.978C485.057 639.029 485.034 639.082 485.015 639.137C484.895 638.367 484.785 637.588 484.675 636.818C483.815 635.328 482.535 633.128 481.055 630.598L480.255 629.238L479.195 627.427L478.385 626.047C478.105 625.587 477.835 625.117 477.555 624.647L476.235 622.417C474.528 623.759 472.745 625.001 470.895 626.137C470.583 626.139 470.272 626.166 469.965 626.218L470.405 626.438C461.492 631.732 451.368 634.649 441.005 634.907H439.505C439.525 634.987 437.885 636.057 437.765 635.938Z" fill="#FBB089"/>
<path d="M483.165 589.927L482.854 589.747C485.361 591.787 487.596 594.139 489.505 596.747C488.057 593.935 485.863 591.576 483.165 589.927ZM470.185 626.327C456.515 628.327 439.824 630.117 425.794 629.587L425.924 629.797C426.924 631.557 428.274 635.147 429.924 637.057C430.263 637.466 430.677 637.806 431.145 638.057C431.455 635.947 432.505 634.057 434.595 633.637C434.595 633.637 437.055 636.417 437.745 635.947C437.805 636.017 439.505 634.947 439.595 634.947H441.095C451.461 634.689 461.588 631.773 470.505 626.477L470.185 626.327ZM428.415 596.857L428.625 596.947C430.385 594.516 432.429 592.304 434.715 590.357C432.194 592.073 430.051 594.285 428.415 596.857Z" fill="#38385C"/>
<path d="M496.804 621.488C496.394 623.218 495.984 624.957 495.524 626.657C495.254 627.657 494.964 628.657 494.654 629.657L491.594 635.948L491.284 636.247L491.174 636.358C490.96 636.573 490.705 636.743 490.424 636.858C489.484 637.788 485.814 637.957 485.224 638.997C485.197 639.049 485.173 639.102 485.154 639.157C485.044 638.387 484.924 637.608 484.814 636.838C484.814 636.538 484.724 636.238 484.684 635.938C484.104 632.024 483.527 628.121 482.954 624.228L487.714 623.358C491.714 622.608 494.564 622.018 495.904 621.728L496.694 621.557V621.488H496.804Z" fill="#38385C"/>
<path d="M476.354 622.478L477.674 624.708L478.505 626.108L479.315 627.488L480.375 629.297L481.174 630.657C482.654 633.187 483.924 635.387 484.794 636.877C484.794 636.577 484.705 636.278 484.665 635.988C483.905 630.854 483.148 625.728 482.395 620.608C482.235 619.548 482.084 618.497 481.924 617.438L480.924 618.438C479.474 619.864 477.948 621.213 476.354 622.478Z" fill="#E88A78"/>
<path d="M464.654 594.277C465.024 594.277 465.404 594.347 465.774 594.397C466.144 594.447 466.404 594.477 466.714 594.537L467.354 594.647L468.024 594.787L468.684 594.948C468.978 595.014 469.268 595.094 469.554 595.188C469.924 595.297 470.304 595.417 470.664 595.547L470.974 595.657C471.214 595.747 471.464 595.827 471.704 595.927L472.124 596.098L472.424 596.218C472.54 596.261 472.654 596.312 472.764 596.368L473.764 596.838C474.094 596.998 474.424 597.168 474.764 597.348C475.104 597.528 475.114 597.537 475.284 597.637L475.654 597.858L475.754 597.917L475.964 598.047L476.234 598.218C477.353 598.916 478.419 599.694 479.424 600.547L479.584 600.688C480.329 601.316 481.04 601.984 481.714 602.688C481.814 602.797 481.914 602.897 482.004 603.007C482.094 603.117 482.304 603.337 482.444 603.507L482.864 604.007C483.034 604.207 483.194 604.418 483.354 604.618C483.514 604.818 483.544 604.858 483.634 604.988C483.724 605.118 483.944 605.417 484.094 605.637L484.444 606.147C484.524 606.267 484.604 606.387 484.674 606.507L484.794 606.698C484.844 606.768 484.874 606.837 484.924 606.897C485.074 607.147 485.224 607.397 485.364 607.657C485.504 607.917 485.644 608.167 485.774 608.438C485.904 608.708 486.034 608.958 486.154 609.228C486.274 609.498 486.394 609.757 486.504 610.027C486.614 610.297 486.614 610.297 486.664 610.427C486.714 610.307 486.754 610.177 486.794 610.057L486.874 609.797V609.708C486.874 609.618 486.924 609.517 486.954 609.427C486.984 609.337 487.064 608.997 487.114 608.777C487.164 608.557 487.114 608.617 487.164 608.537C487.169 608.458 487.169 608.377 487.164 608.297L487.224 607.887C487.229 607.861 487.229 607.834 487.224 607.807C487.229 607.771 487.229 607.734 487.224 607.698C487.224 607.578 487.224 607.468 487.224 607.348C487.229 607.321 487.229 607.294 487.224 607.267C487.224 607.087 487.224 606.918 487.224 606.738C487.224 606.558 487.224 606.437 487.224 606.287C487.224 606.137 487.224 605.777 487.224 605.527V605.387C487.229 605.291 487.229 605.194 487.224 605.098C487.229 605.008 487.229 604.917 487.224 604.828C487.224 604.638 487.224 604.437 487.224 604.247C487.224 604.247 487.224 604.247 487.224 604.188C487.224 603.987 487.174 603.798 487.144 603.598C487.114 603.398 487.144 603.307 487.064 603.157L486.974 602.718C486.974 602.658 486.974 602.587 486.974 602.527C486.957 602.439 486.933 602.352 486.904 602.267C486.904 602.147 486.844 602.027 486.804 601.907C486.809 601.858 486.809 601.807 486.804 601.757C486.804 601.647 486.744 601.527 486.704 601.417C486.614 601.127 486.514 600.848 486.414 600.568L486.264 600.177C486.144 599.887 486.014 599.608 485.884 599.328L485.734 599.027L485.464 598.537C485.464 598.437 485.354 598.347 485.294 598.247C485.234 598.147 485.174 598.058 485.124 597.958C485.074 597.858 484.884 597.577 484.754 597.397L484.494 597.027C484.354 596.847 484.224 596.667 484.084 596.497L483.644 595.988C483.549 595.87 483.445 595.76 483.334 595.657C483.192 595.503 483.042 595.357 482.884 595.218L482.414 594.797L482.094 594.527L481.644 594.188L481.334 593.968L480.854 593.647L480.364 593.358C480.254 593.292 480.141 593.231 480.024 593.177L479.684 593.007L479.364 592.858L478.924 592.667L478.594 592.527H478.444L478.284 592.468L477.964 592.358L477.564 592.228C477.244 592.128 476.914 592.038 476.564 591.968L476.094 591.868L475.654 591.787H475.504H475.434L475.064 591.738H474.604H474.394H474.044H473.484H472.884C472.564 591.738 472.254 591.738 471.884 591.738H471.574L470.944 591.818L470.324 591.927L469.704 592.057L469.094 592.218L468.544 592.387H468.424L468.014 592.527L467.834 592.598L467.324 592.807L466.894 593.007L466.524 593.188H466.424L466.064 593.377C465.572 593.64 465.1 593.941 464.654 594.277Z" fill="#82635A"/>
<path d="M496.725 621.507V621.577L495.935 621.747L496.505 621.577L496.725 621.507Z" fill="#82635A"/>
<path d="M480.244 637.217L468.244 632.667C470.466 631.989 472.85 632.067 475.022 632.891C477.194 633.714 479.031 635.236 480.244 637.217Z" fill="#101029"/>
<path d="M450.784 634.058L440.484 637.257C441.692 635.765 443.315 634.664 445.149 634.094C446.982 633.524 448.944 633.512 450.784 634.058Z" fill="#101029"/>
<path d="M447.114 637.308C448.484 636.878 450.114 638.168 450.724 640.178C451.334 642.188 450.724 644.178 449.384 644.578C448.044 644.978 446.384 643.728 445.774 641.718C445.164 639.708 445.754 637.738 447.114 637.308Z" fill="#101029"/>
<path d="M469.764 637.608C471.184 637.478 472.494 639.067 472.684 641.167C472.874 643.267 471.874 645.067 470.444 645.167C469.014 645.267 467.714 643.698 467.524 641.608C467.334 639.518 468.334 637.738 469.764 637.608Z" fill="#101029"/>
<path d="M455.474 636.057C456.054 638.897 456.624 641.737 457.204 644.577C457.099 644.22 456.909 643.892 456.651 643.623C456.393 643.353 456.075 643.149 455.722 643.028C455.37 642.906 454.993 642.871 454.624 642.924C454.255 642.978 453.904 643.119 453.601 643.336C453.297 643.552 453.05 643.838 452.879 644.17C452.709 644.502 452.62 644.87 452.62 645.243C452.62 645.616 452.71 645.983 452.881 646.314C453.052 646.646 453.3 646.931 453.604 647.147L459.874 651.587" fill="#FB6562"/>
<path d="M453.794 655.867C457.561 656.898 461.557 656.717 465.217 655.352C468.876 653.986 472.013 651.504 474.184 648.257C474.421 650.778 473.838 653.308 472.52 655.47C471.203 657.633 469.223 659.312 466.874 660.257C462.144 662.057 456.314 660.207 453.794 655.867Z" fill="white"/>
<path d="M361.784 654.287C362.784 647.501 363.784 640.714 364.784 633.927C365.054 632.077 362.984 630.467 361.134 630.757C360.219 630.975 359.382 631.442 358.715 632.105C358.048 632.769 357.577 633.603 357.354 634.517C356.927 636.346 356.849 638.24 357.124 640.097C355.197 639.203 353.137 638.632 351.024 638.407C349.965 638.305 348.897 638.461 347.912 638.862C346.926 639.262 346.052 639.896 345.364 640.707C344.283 642.171 343.599 643.89 343.379 645.697C343.159 647.504 343.411 649.336 344.11 651.017C344.808 652.698 345.93 654.168 347.366 655.287C348.803 656.405 350.504 657.132 352.304 657.397C352.404 658.027 352.494 658.657 352.594 659.287C355.279 657.004 358.409 655.302 361.784 654.287Z" fill="#FBB089"/>
<path d="M368.544 661.057L351.544 666.677C350.994 664.217 350.464 661.677 349.944 659.077L362.744 653.797C362.744 653.797 364.984 656.517 368.544 661.057Z" fill="#F75C3D"/>
<path d="M496.804 619.058C496.804 619.898 496.804 620.738 496.724 621.558L496.494 621.627H421.574C421.514 620.777 421.484 619.928 421.484 619.058C421.484 618.188 421.484 617.058 421.604 616.058C421.953 611.585 423.105 607.212 425.004 603.148C426.009 600.985 427.221 598.925 428.624 596.997C432.682 591.387 438.206 587.003 444.592 584.326C450.977 581.648 457.977 580.782 464.822 581.821C471.668 582.861 478.095 585.766 483.398 590.217C488.701 594.669 492.675 600.496 494.884 607.058C495.164 607.888 495.414 608.738 495.634 609.588C496.415 612.684 496.808 615.865 496.804 619.058Z" fill="#F75C3D"/>
<path d="M496.494 621.577L495.924 621.747C494.584 622.037 491.704 622.627 487.734 623.377C486.284 623.647 484.734 623.947 482.974 624.247C479.234 624.907 474.914 625.627 470.234 626.317C456.564 628.317 439.874 630.107 425.844 629.577C418.844 629.317 412.534 628.477 407.564 626.807C407.494 626.807 407.564 626.807 407.564 626.687C407.234 620.687 421.564 621.587 421.564 621.587H496.564L496.494 621.577Z" fill="#E44531"/>
<path d="M634.974 838.957V1021.32C634.976 1024.77 634.729 1028.21 634.234 1031.63H137.694C137.199 1028.21 136.952 1024.77 136.954 1021.32V838.957C136.954 819.91 144.521 801.642 157.99 788.173C171.459 774.704 189.726 767.137 208.774 767.137H563.144C572.576 767.136 581.917 768.993 590.631 772.602C599.346 776.21 607.265 781.5 613.935 788.169C620.605 794.839 625.896 802.757 629.506 811.471C633.116 820.185 634.974 829.525 634.974 838.957Z" fill="white"/>
<path d="M326.665 767.137H326.345V767.127L326.665 767.137Z" fill="#A54545"/>
<path d="M280.134 753.417V753.767H312.214L280.134 753.417ZM280.134 753.417V753.767H312.214L280.134 753.417ZM280.134 753.417V753.767H312.214L280.134 753.417ZM381.024 542.347C362.919 542.347 345.3 548.203 330.797 559.04C316.294 569.877 305.685 585.115 300.554 602.477L252.124 766.387L318.324 767.127H551.104V757.617H322.774L259.844 756.937L280.134 690.817L305.884 606.897C315.884 574.257 347.024 551.897 382.364 551.897H556.454V555.607H564.164V542.387L381.024 542.347ZM280.134 753.417V753.767H312.214L280.134 753.417ZM280.134 753.417V753.767H312.214L280.134 753.417Z" fill="#DBDBDB"/>
<path d="M280.135 753.417V753.767H312.215L280.135 753.417Z" fill="#E87979"/>
<path d="M556.465 555.567V551.857H382.365C347.025 551.857 315.895 574.257 305.885 606.857L280.135 690.777L259.885 756.937L322.815 757.617H551.115V996.877H564.175V555.557H556.465V555.567ZM326.145 753.917H325.885L312.245 753.767H280.135V704.567L284.355 690.827L309.575 608.637C319.225 577.177 349.235 555.637 383.305 555.637H551.115V753.977H326.115L326.145 753.917Z" fill="white"/>
<path d="M312.215 753.767H280.135V753.417L312.215 753.767Z" fill="#F7BCBC"/>
<path d="M137.084 918.057V978.687H136.244C130.915 978.685 125.681 977.28 121.068 974.612C116.455 971.945 112.626 968.109 109.966 963.492C107.306 958.875 105.909 953.638 105.916 948.31C105.923 942.981 107.333 937.748 110.004 933.137C112.678 928.55 116.508 924.743 121.112 922.097C125.717 919.451 130.934 918.058 136.244 918.057H137.084Z" fill="#FBB750"/>
<path d="M137.084 965.057V978.727H136.244C130.915 978.725 125.681 977.32 121.068 974.652C116.455 971.985 112.626 968.149 109.966 963.532C107.306 958.915 105.909 953.678 105.916 948.35C105.923 943.021 107.333 937.788 110.004 933.177C111.335 930.879 112.966 928.767 114.854 926.897C117.686 941.784 125.531 955.251 137.084 965.057Z" fill="#FDEC88"/>
<path d="M131.885 978.387C126.981 977.668 122.329 975.759 118.334 972.827C114.339 969.895 111.123 966.028 108.967 961.566C106.811 957.104 105.782 952.181 105.968 947.229C106.154 942.277 107.55 937.445 110.035 933.157C109.885 950.367 118.385 967.627 131.885 978.387Z" fill="#FDFDFC"/>
<path d="M137.765 916.777C150.845 935.267 150.095 962.357 136.025 980.097C135.885 959.507 135.705 938.917 137.765 916.777Z" fill="#1A1A35"/>
<path d="M1256.27 475.057H564.174V996.887H1256.27V475.057Z" fill="#38385C"/>
<path d="M485.764 998.867H220.464C227.797 969.229 244.845 942.901 268.887 924.082C292.93 905.263 322.582 895.038 353.114 895.038C383.646 895.038 413.298 905.263 437.341 924.082C461.383 942.901 478.431 969.229 485.764 998.867Z" fill="#1A1A35"/>
<path d="M1184.49 998.867H911.284C911.284 941.517 972.444 895.027 1047.88 895.027C1123.32 895.027 1184.49 941.517 1184.49 998.867Z" fill="#1A1A35"/>
<path d="M1295.56 1014.26C1295.56 1018.86 1293.73 1023.28 1290.47 1026.54C1287.22 1029.79 1282.8 1031.62 1278.19 1031.63H117.194C112.587 1031.63 108.169 1029.8 104.912 1026.54C101.654 1023.28 99.8242 1018.86 99.8242 1014.26C99.8242 1009.65 101.654 1005.23 104.912 1001.98C108.169 998.718 112.587 996.887 117.194 996.887H1278.19C1280.48 996.887 1282.73 997.337 1284.84 998.21C1286.95 999.083 1288.86 1000.36 1290.48 1001.98C1292.09 1003.59 1293.37 1005.5 1294.24 1007.61C1295.11 1009.72 1295.56 1011.98 1295.56 1014.26Z" fill="#1A1A35"/>
<path d="M353.114 1144.23C418.786 1144.23 472.024 1093.81 472.024 1031.63C472.024 969.44 418.786 919.027 353.114 919.027C287.442 919.027 234.204 969.44 234.204 1031.63C234.204 1093.81 287.442 1144.23 353.114 1144.23Z" fill="#707070"/>
<path d="M353.114 1118.44C403.742 1118.44 444.784 1079.57 444.784 1031.63C444.784 983.683 403.742 944.817 353.114 944.817C302.486 944.817 261.444 983.683 261.444 1031.63C261.444 1079.57 302.486 1118.44 353.114 1118.44Z" fill="#38385C"/>
<path d="M353.114 1104C395.32 1104 429.534 1071.6 429.534 1031.63C429.534 991.658 395.32 959.257 353.114 959.257C310.909 959.257 276.694 991.658 276.694 1031.63C276.694 1071.6 310.909 1104 353.114 1104Z" fill="#FEBE3D"/>
<path d="M1047.89 1144.23C1113.57 1144.23 1166.8 1093.81 1166.8 1031.63C1166.8 969.44 1113.57 919.027 1047.89 919.027C982.222 919.027 928.984 969.44 928.984 1031.63C928.984 1093.81 982.222 1144.23 1047.89 1144.23Z" fill="#707070"/>
<path d="M1047.89 1118.44C1098.52 1118.44 1139.56 1079.57 1139.56 1031.63C1139.56 983.683 1098.52 944.817 1047.89 944.817C997.267 944.817 956.225 983.683 956.225 1031.63C956.225 1079.57 997.267 1118.44 1047.89 1118.44Z" fill="#38385C"/>
<path d="M1047.89 1104C1090.1 1104 1124.31 1071.6 1124.31 1031.63C1124.31 991.658 1090.1 959.257 1047.89 959.257C1005.69 959.257 971.475 991.658 971.475 1031.63C971.475 1071.6 1005.69 1104 1047.89 1104Z" fill="#FEBE3D"/>
<path d="M290.825 704.567H280.135V790.077H290.825V704.567Z" fill="#F8A23A"/>
<path d="M280.135 753.417H252.135V766.387H280.135V753.417Z" fill="#F8A23A"/>
<path d="M324.324 757.627V683.347C324.324 680.032 325.641 676.853 327.985 674.509C330.33 672.164 333.509 670.847 336.824 670.847V757.627H324.324Z" fill="#1A1A35"/>
<g filter="url(#filter0_d_153_437)">
<path d="M1748.93 926.487H1336.93V1140.06H1748.93V926.487Z" fill="#FEBE3D"/>
</g>
<g filter="url(#filter1_d_153_437)">
<path d="M1437.43 926.487H1336.93V1140.06H1437.43V926.487Z" fill="#F8A23A"/>
</g>
<g filter="url(#filter2_d_153_437)">
<path d="M1629.68 725.307H1387.19V926.487H1629.68V725.307Z" fill="#FEBE3D"/>
</g>
<path d="M1448.4 725.307H1387.19V926.487H1448.4V725.307Z" fill="#F8A23A"/>
<path d="M1386.56 926.977L1448.39 920.977L1573.79 927.907L1386.56 926.977Z" fill="#EC7F37"/>
<path d="M1736.66 944.807H1652.49V964.567H1736.66V944.807Z" fill="white"/>
<path d="M1738.01 974.957H1653.84V994.717H1738.01V974.957Z" fill="white"/>
<path d="M1620.89 736.887H1562.03V756.647H1620.89V736.887Z" fill="white"/>
<path d="M1620.89 763.897H1562.03V783.657H1620.89V763.897Z" fill="white"/>
<g filter="url(#filter3_d_153_437)">
<path d="M1441 570.569C1441 539.309 1465.62 514 1495.99 514C1526.37 514 1551 539.326 1551 570.569C1551 601.812 1498.24 659 1498.24 659C1498.24 659 1441 601.812 1441 570.569Z" fill="#F75C3D"/>
</g>
<path d="M1496.5 591C1511.14 591 1523 579.136 1523 564.5C1523 549.864 1511.14 538 1496.5 538C1481.86 538 1470 549.864 1470 564.5C1470 579.136 1481.86 591 1496.5 591Z" fill="#1A1A35"/>
<path d="M852.064 800.587C852.064 798.185 853.019 795.88 854.718 794.181C856.417 792.482 858.722 791.527 861.124 791.527H1207.12C1209.53 791.527 1211.83 792.482 1213.53 794.181C1215.23 795.88 1216.18 798.185 1216.18 800.587C1216.18 802.99 1215.23 805.295 1213.53 806.994C1211.83 808.693 1209.53 809.647 1207.12 809.647H861.124C858.722 809.647 856.417 808.693 854.718 806.994C853.019 805.295 852.064 802.99 852.064 800.587Z" fill="#FFCD69"/>
<path d="M586 623.5C586 589.685 586.955 557.255 588.654 533.344C590.353 509.433 592.657 496 595.06 496H1228.94C1231.34 496 1233.65 509.433 1235.35 533.344C1237.05 557.255 1238 589.685 1238 623.5C1238 657.315 1237.05 689.745 1235.35 713.656C1233.65 737.567 1231.34 751 1228.94 751H595.06C592.657 751 590.353 737.567 588.654 713.656C586.955 689.745 586 657.315 586 623.5Z" fill="#FFCD69"/>
<path d="M985.124 833.587C985.124 831.185 986.079 828.88 987.778 827.181C989.477 825.482 991.781 824.527 994.184 824.527H1205.07C1207.48 824.527 1209.78 825.482 1211.48 827.181C1213.18 828.88 1214.13 831.185 1214.13 833.587C1214.13 835.99 1213.18 838.295 1211.48 839.994C1209.78 841.693 1207.48 842.647 1205.07 842.647H994.184C991.781 842.647 989.477 841.693 987.778 839.994C986.079 838.295 985.124 835.99 985.124 833.587Z" fill="#FFCD69"/>
<path d="M1048.12 866.587C1048.12 864.185 1049.08 861.88 1050.78 860.181C1052.48 858.482 1054.78 857.527 1057.18 857.527H1207.07C1209.48 857.527 1211.78 858.482 1213.48 860.181C1215.18 861.88 1216.13 864.185 1216.13 866.587C1216.13 868.99 1215.18 871.295 1213.48 872.994C1211.78 874.693 1209.48 875.647 1207.07 875.647H1057.18C1054.78 875.647 1052.48 874.693 1050.78 872.994C1049.08 871.295 1048.12 868.99 1048.12 866.587Z" fill="#FFCD69"/>
<path d="M935.093 591.037C929.078 591.525 923.842 593.804 919.437 597.859L919.126 598.144L922.05 601.067L924.974 603.984L925.162 603.829C926.9 602.343 928.123 601.533 929.738 600.804C931.316 600.091 932.968 599.624 934.825 599.372C935.694 599.254 938.028 599.232 938.875 599.34C942.867 599.828 946.295 601.426 949.026 604.06C953.361 608.243 954.949 614.202 953.276 619.995C951.548 625.964 946.687 630.695 940.839 632.095C939.632 632.384 937.743 632.588 935.71 632.642C932.716 632.728 929.282 631.671 925.838 629.612C924.652 628.904 923.52 628.104 918.326 624.296C914.227 621.293 900.766 611.354 897.59 608.989L896.946 608.506L896.93 613.355C896.919 617.184 896.935 618.214 896.984 618.262C897.145 618.412 920.113 634.525 920.553 634.793C925.35 637.71 930.189 639.443 934.69 639.851C935.409 639.915 937.652 639.883 938.902 639.786C945.33 639.309 951.194 636.536 955.588 631.907C962.472 624.65 964.145 614.036 959.826 605.063C957.975 601.211 954.998 597.79 951.376 595.349C947.98 593.059 944.096 591.638 939.895 591.139C938.827 591.015 936.112 590.956 935.093 591.037Z" fill="#FF2020"/>
<path d="M892.718 592.008C886.221 592.34 880.217 595.043 875.727 599.651C873.817 601.608 872.502 603.464 871.306 605.894C869.927 608.688 869.16 611.483 868.907 614.658C868.827 615.677 868.87 618.112 868.988 619.088C869.519 623.47 871.113 627.423 873.747 630.893C879.863 638.933 890.368 642.565 900.348 640.081C904.538 639.035 908.358 636.976 911.529 634.042L911.894 633.704L908.97 630.781L906.046 627.863L905.788 628.088C903.191 630.362 900.439 631.714 897.188 632.304C894.355 632.819 891.398 632.62 888.673 631.741C885.937 630.856 883.64 629.435 881.65 627.396C879.048 624.725 877.503 621.4 877.17 617.747C877.084 616.793 877.138 615.049 877.277 614.127C877.69 611.418 878.629 609.032 880.169 606.779C882.712 603.062 886.559 600.455 890.749 599.619C891.656 599.436 892.235 599.366 893.378 599.297C893.834 599.27 894.5 599.222 894.854 599.189C896.334 599.055 898.54 599.383 900.46 600.01C902.306 600.616 904.302 601.598 906.147 602.804C907.671 603.802 917.962 611.349 932.212 621.92C933.253 622.693 934.116 623.325 934.127 623.325C934.143 623.325 934.149 621.137 934.143 618.466L934.127 613.601L922.474 605.417C916.068 600.917 910.622 597.114 910.375 596.964C905.606 594.121 901.104 592.48 896.823 592.029C896.034 591.943 894.108 591.933 892.718 592.008Z" fill="#171717"/>
<path d="M894.586 600.852C894.409 600.879 893.856 600.922 893.352 600.954C890.154 601.158 887.279 602.268 884.752 604.279C879.172 608.726 877.16 616.342 879.939 622.521C880.288 623.299 881.119 624.763 881.178 624.704C881.189 624.693 881.152 624.543 881.092 624.366C880.658 623.116 880.341 621.089 880.341 619.625C880.347 615.822 881.699 612.062 884.194 608.897C884.709 608.243 886.275 606.677 886.951 606.141C888.577 604.843 890.653 603.754 892.547 603.191C893.862 602.804 894.988 602.617 896.598 602.515C897.086 602.483 897.752 602.434 898.073 602.408C899.608 602.279 902.001 602.644 903.975 603.319C904.238 603.405 904.431 603.459 904.404 603.432C904.372 603.405 903.954 603.175 903.465 602.922C901.491 601.903 899.747 601.297 897.805 600.954C897.092 600.831 895.176 600.766 894.586 600.852Z" fill="#FF2727"/>
<path d="M936.074 600.906C933.375 601.115 930.838 601.941 928.654 603.314C928.016 603.716 927.061 604.43 926.572 604.88L926.202 605.213L927.189 606.2C927.726 606.736 928.182 607.181 928.198 607.181C928.214 607.181 928.477 606.961 928.788 606.693C931.396 604.435 934.454 603.078 938.043 602.59C938.907 602.472 941.3 602.456 942.121 602.563C943.355 602.719 944.878 603.041 945.576 603.293C945.705 603.336 945.823 603.368 945.834 603.352C945.871 603.32 945.109 602.89 944.304 602.499C942.673 601.7 940.967 601.196 939.181 600.986C938.311 600.89 936.815 600.847 936.074 600.906Z" fill="#141414"/>
<path d="M962.084 606.677C962.374 607.423 962.825 608.849 963.039 609.702C964.445 615.382 963.823 621.336 961.274 626.624C959.563 630.18 956.944 633.387 953.709 635.903C951.499 637.619 948.773 639.084 946.096 640.001C942.947 641.079 940.173 641.503 936.256 641.508C933.386 641.508 929.882 640.757 926.443 639.4C926.111 639.266 925.837 639.169 925.837 639.18C925.837 639.212 927.656 640.119 928.364 640.435C931.326 641.776 934.25 642.624 937.292 643.02C938.397 643.165 941.831 643.085 943.488 642.87C953.119 641.647 961.204 635.125 964.198 626.168C965.432 622.473 965.743 618.52 965.105 614.69C964.649 611.971 963.635 609.134 962.272 606.779C961.891 606.13 961.859 606.114 962.084 606.677Z" fill="#141414"/>
<path d="M935.709 620.279C935.709 622.912 935.73 625.095 935.752 625.128C935.789 625.187 936.964 626.077 937.227 626.243L937.372 626.34V621.459V616.583L936.594 616.036C936.16 615.741 935.789 615.495 935.763 615.495C935.73 615.495 935.709 617.291 935.709 620.279Z" fill="#FF2727"/>
<path d="M912.956 635.05C912.886 635.131 912.516 635.469 912.129 635.806C907.075 640.264 900.562 642.618 893.7 642.457C890.513 642.382 887.905 641.873 884.552 640.682C884.273 640.58 884.976 640.972 885.893 641.427C888.753 642.838 891.57 643.626 895.014 643.98C896.001 644.082 898.689 644.066 899.789 643.954C905.546 643.358 910.632 641.073 914.812 637.201L915.134 636.901L914.141 635.908C913.594 635.361 913.138 634.911 913.117 634.911C913.1 634.911 913.031 634.975 912.956 635.05Z" fill="#FF2727"/>
<path d="M1043.25 597.258C1034.39 598.183 1028.07 601.396 1024.45 606.811C1023.21 608.659 1022.26 610.574 1021.99 611.763C1021.86 612.401 1020.3 613.81 1018.35 615.086C1017.84 615.416 1017.86 615.438 1019.39 616.473C1020.24 617.045 1021.1 617.727 1021.35 617.991C1021.61 618.3 1021.63 618.388 1021.41 618.212C1020.7 617.683 1020.77 618.278 1021.5 618.938C1022.01 619.378 1022.45 620.126 1022.88 621.249C1023.72 623.45 1024.81 625.012 1026.92 626.993C1027.89 627.896 1028.74 628.798 1028.82 628.996C1029.05 629.612 1032.49 632.188 1034.31 633.112C1036.46 634.212 1039.32 635.203 1042.03 635.797C1045.18 636.457 1052.77 636.633 1056.17 636.105C1060.18 635.489 1064.33 634.014 1067.28 632.144C1069.15 630.955 1071.48 628.666 1072.72 626.795C1073.67 625.365 1074.92 622.327 1074.92 621.447C1074.92 621.161 1075.27 620.831 1076.72 619.774C1077.05 619.51 1077.18 619.686 1077.78 621.293C1079.47 625.607 1083.28 629.062 1088.79 631.219C1096.71 634.322 1107.52 634.322 1115.04 631.241C1121.01 628.798 1124.72 625.145 1126.31 620.17C1127.03 617.947 1127.11 617.837 1129.18 616.341C1130.02 615.724 1130.78 615.196 1130.84 615.152C1130.89 615.108 1130.66 614.844 1130.35 614.58C1130.04 614.316 1129.64 613.7 1129.51 613.215C1129.09 611.851 1128.2 610.244 1127.18 608.923C1126.16 607.647 1124.98 606.436 1124.76 606.48C1124.67 606.502 1124.21 606.04 1123.7 605.468C1118.59 599.547 1109.14 596.4 1099.08 597.214C1095.4 597.523 1093.36 597.919 1090.59 598.821C1086.55 600.164 1082.93 602.387 1080.78 604.874C1079.33 606.568 1077.67 609.364 1077.11 611.102C1076.8 612.049 1076.43 612.731 1076.03 613.039C1075.16 613.722 1074.7 613.898 1074.7 613.479C1074.7 612.797 1072.9 609.628 1071.7 608.197C1070.21 606.458 1069.64 606.216 1070.9 607.889C1071.81 609.078 1072.99 611.411 1073.23 612.511L1073.39 613.127L1072.72 612.643C1072.25 612.313 1072.01 611.895 1071.92 611.278C1071.48 608.725 1068.68 604.808 1065.66 602.541C1062.67 600.296 1057.85 598.315 1053.61 597.611C1051.06 597.17 1045.76 596.994 1043.25 597.258ZM1050.17 599.79C1051.86 600.23 1053.21 600.912 1054.23 601.814L1055.06 602.541L1054.28 602.123C1052.81 601.308 1050.95 600.912 1048.73 600.912C1042.41 600.956 1038.59 604.081 1036.92 610.574C1036.48 612.291 1036.41 613.105 1036.41 616.847C1036.41 621.733 1036.79 623.802 1038.17 626.641L1038.92 628.182L1038.17 627.301C1035.73 624.418 1034.46 618.74 1034.99 612.819C1035.53 606.546 1037.77 602.497 1041.67 600.67C1044.2 599.481 1047.6 599.129 1050.17 599.79ZM1105.08 599.79C1106.72 600.186 1108.16 600.912 1109.43 601.99L1110.31 602.761L1109.29 602.211C1107.58 601.286 1106.05 600.934 1103.77 600.912C1098.66 600.89 1095.09 602.937 1093.14 607.031C1092.05 609.276 1091.61 610.992 1091.3 614.272C1090.85 618.806 1091.56 623.56 1093.2 626.839L1093.96 628.402L1093.2 627.522C1091.18 625.145 1090.05 621.491 1089.85 616.671C1089.41 605.622 1093.74 599.547 1102.1 599.481C1102.97 599.481 1104.3 599.613 1105.08 599.79ZM1054.9 603.421C1056.48 604.125 1056.52 604.191 1057.3 605.71C1059.25 609.672 1059.69 617.199 1058.25 622.349C1057.03 626.773 1054.15 629.789 1050.17 630.823C1047.62 631.461 1043.54 631.087 1041.56 630.009C1038.9 628.556 1037.26 621.315 1038.08 614.734C1038.77 609.342 1041.03 605.38 1044.4 603.751C1046.38 602.783 1047.67 602.541 1050.62 602.607C1053.1 602.673 1053.39 602.717 1054.9 603.421ZM1108.45 602.893C1110.45 603.465 1111.47 604.191 1112.11 605.446C1114.26 609.672 1114.6 618.586 1112.78 623.582C1111.29 627.61 1108.38 630.185 1104.48 630.955C1101.84 631.461 1097.6 630.845 1095.87 629.722C1095.22 629.304 1094.16 627.103 1093.58 624.99C1092.94 622.635 1092.65 618.916 1092.89 615.923C1093.49 608.659 1096.42 604.257 1101.57 602.893C1103.21 602.453 1106.92 602.453 1108.45 602.893ZM1126.14 608.351C1127.2 609.936 1128.18 612.071 1128.18 612.819C1128.18 613.545 1126.89 612.005 1126.74 611.102C1126.65 610.64 1126.23 609.54 1125.78 608.659C1125.34 607.779 1124.94 606.987 1124.89 606.877C1124.85 606.789 1124.87 606.723 1124.92 606.723C1124.98 606.723 1125.54 607.471 1126.14 608.351ZM1075.76 617.595C1075.96 617.837 1076.03 617.947 1075.89 617.881C1075.74 617.793 1075.14 618.123 1074.52 618.608C1073.67 619.29 1073.39 619.664 1073.25 620.302C1072.61 623.78 1069.57 627.984 1066 630.317C1061.51 633.266 1056.81 634.609 1050.28 634.829C1042.34 635.093 1035.97 633.618 1031.18 630.449C1029.25 629.172 1028.14 628.204 1029.8 629.238C1032.37 630.845 1036.33 632.276 1040.08 632.958C1043.52 633.574 1050.68 633.64 1053.83 633.046C1059.63 631.989 1064.55 629.568 1067.75 626.223C1069.61 624.308 1070.77 622.327 1071.59 619.774C1072.1 618.101 1072.28 617.815 1073.14 617.177C1074.12 616.451 1074.14 616.451 1074.76 616.803C1075.12 617.001 1075.56 617.375 1075.76 617.595Z" fill="#181818"/>
<path d="M632.053 598.243C632.009 598.397 631.987 600.642 632.009 603.24L632.075 607.972L633.296 608.038L634.516 608.104L635.071 607.047C635.959 605.374 637.757 603.614 639.266 602.931C640.708 602.293 643.416 601.941 646.9 601.919H648.83V602.579C648.83 602.931 648.808 603.24 648.786 603.24C648.742 603.24 647.321 603.35 645.613 603.438C642.106 603.68 640.597 604.098 639.066 605.308C638.112 606.057 636.181 608.588 636.181 609.116C636.181 609.292 635.915 609.402 635.515 609.402C634.894 609.402 634.849 609.468 634.849 610.173V610.943H636.247H637.623L638.178 609.908C639.021 608.346 640.708 606.629 642.062 606.013C643.327 605.396 645.502 605.022 647.565 605H648.83V608.5V611.977L647.122 613.078C646.167 613.694 645.013 614.398 644.547 614.684L643.726 615.169L645.613 616.291C646.656 616.907 647.832 617.678 648.209 618.03L648.941 618.668L648.032 618.184C647.455 617.854 646.988 617.744 646.7 617.854C646.345 617.986 646.5 618.14 647.565 618.712L648.83 619.417V626.063V632.732H654.711H660.592V625.601V618.448L661.347 617.876C661.746 617.568 662.9 616.841 663.899 616.247L665.697 615.169L664.698 614.596L663.699 614.002V609.512V605H666.429C669.713 605 671.489 605.242 672.953 605.881C673.841 606.255 674.152 606.519 674.485 607.223L674.862 608.104L676.105 608.038L677.348 607.972V603.019V598.067L654.756 598.001C636.58 597.957 632.142 598.001 632.053 598.243ZM666.673 602.139C669.025 602.359 670.89 603.063 672.243 604.23L672.909 604.802L671.91 604.362C670.468 603.746 668.67 603.504 665.142 603.416L662.035 603.35L661.968 608.016C661.946 610.591 661.857 612.704 661.791 612.704C661.746 612.704 661.436 612.55 661.147 612.351L660.592 611.999V606.959V601.919H662.545C663.611 601.919 665.475 602.029 666.673 602.139Z" fill="#FF1212"/>
<path d="M705.021 598.992L705.088 600.048L706.22 600.18C708.106 600.422 710.37 601.369 710.858 602.139C711.036 602.425 710.991 602.425 709.859 602.029C709.349 601.853 708.617 601.699 708.262 601.699C707.685 601.699 707.618 601.765 707.685 602.293C707.751 602.865 707.862 602.909 709.571 603.239C710.57 603.438 711.479 603.658 711.568 603.768C711.857 604.032 711.901 624.017 711.635 625.755C711.368 627.472 711.013 628.286 710.126 629.101C709.504 629.695 707.396 630.399 705.598 630.641L704.533 630.773V631.764V632.732H715.629H726.725V631.764V630.795L725.571 630.531C722.886 629.981 722.775 629.915 722.487 629.035C722.287 628.462 722.176 625.183 722.132 618.206C722.065 612.704 722.087 608.236 722.132 608.302C722.198 608.368 724.351 612.77 726.903 618.096C729.455 623.422 732.029 628.749 732.606 629.937L733.672 632.094L736.756 632.028L739.841 631.962L746.588 617.546C750.294 609.622 753.423 602.975 753.556 602.799C753.711 602.557 753.778 603.063 753.778 604.56V606.651L747.497 620.077L741.217 633.503L738.532 633.569L735.847 633.635L736.202 634.405L736.579 635.175L739.686 635.109L742.815 635.043L747.409 625.249C749.939 619.857 752.402 614.552 752.89 613.474L753.8 611.493V624.061V636.65L754.976 637.222C755.598 637.53 756.53 638.147 757.018 638.587C757.506 639.005 757.662 639.203 757.351 639.027C756.641 638.565 756.463 638.587 756.463 639.093C756.463 639.379 756.907 639.709 757.928 640.216C759.304 640.876 759.437 641.008 760.058 642.328L760.724 643.737H762.033H763.343V623.048C763.343 608.654 763.409 602.227 763.587 601.853C764.031 600.862 764.807 600.598 769.068 600.026C769.756 599.916 769.779 599.872 769.779 598.926V597.957L759.193 598.001L748.607 598.067L743.725 608.566C741.04 614.354 738.798 619.086 738.732 619.086C738.665 619.086 736.534 614.971 733.982 609.952C731.031 604.098 729.255 600.818 729.056 600.818C728.878 600.818 728.723 600.928 728.723 601.039C728.723 601.171 730.875 605.528 733.516 610.745C736.579 616.841 738.243 620.363 738.155 620.605C738.044 620.825 736.046 617.083 732.207 609.512L726.393 598.067L715.674 598.001L704.955 597.957L705.021 598.992ZM720.512 615.785C720.623 625.469 720.689 627.274 721 628.176L721.377 629.255L720.911 628.837C720.29 628.286 719.713 627.098 719.424 625.733C719.269 624.963 719.18 620.869 719.18 613.408L719.202 602.249L719.801 603.35L720.401 604.45L720.512 615.785Z" fill="#FF1212"/>
<path d="M773.552 598.948C773.552 600.048 773.33 599.938 776.215 600.378C778.146 600.686 779.477 601.215 780.099 601.919L780.542 602.425L780.076 602.271C779.81 602.183 778.9 601.985 778.012 601.831L776.437 601.523V602.249V602.975L778.234 603.239C779.233 603.372 780.165 603.548 780.343 603.614C780.587 603.702 780.653 604.494 780.653 607.729V611.735L779.943 612.395C778.9 613.364 777.546 614.354 776.703 614.773L775.949 615.147L776.77 615.565C777.657 616.005 779.921 617.7 780.143 618.074C780.232 618.206 780.121 618.184 779.921 618.008C779.721 617.854 779.388 617.788 779.166 617.854C778.856 617.986 778.967 618.118 779.721 618.558L780.653 619.108V623.62C780.653 628.947 780.52 629.431 779.055 630.091C778.456 630.355 777.28 630.553 775.815 630.663L773.552 630.817V631.764V632.732H786.423H799.295V631.764V630.817L797.63 630.663C796.698 630.575 795.811 630.465 795.633 630.377C795.345 630.289 795.3 629.519 795.3 625.821V621.397L796.587 620.385C797.275 619.813 798.318 619.064 798.873 618.712L799.916 618.074L798.829 617.458C797.564 616.753 797.519 616.775 795.256 618.58L793.747 619.769V624.853V629.959L793.081 629.321L792.415 628.683V623.488V618.294L793.37 617.524C794.479 616.599 796.166 615.455 796.61 615.301C796.809 615.257 796.632 615.037 796.121 614.728L795.3 614.266V609.864C795.3 606.915 795.389 605.264 795.567 604.89C795.966 604.032 797.298 603.46 799.495 603.217C800.538 603.107 801.625 603.019 801.914 603.019C802.38 603.019 802.424 602.931 802.357 601.963C802.291 600.973 802.269 600.928 801.581 600.862C801.07 600.818 800.848 600.884 800.848 601.105C800.848 601.347 800.338 601.457 798.762 601.567C796.454 601.721 794.879 602.161 794.279 602.843C793.902 603.239 793.858 603.79 793.791 608.104C793.747 610.745 793.636 612.924 793.547 612.924C793.458 612.924 793.17 612.704 792.903 612.417C792.437 611.933 792.415 611.735 792.415 607.003C792.415 603.9 792.504 601.941 792.659 601.655C793.037 600.973 794.634 600.378 796.565 600.246C799.339 600.048 799.295 600.07 799.295 598.948V597.957H786.423H773.552V598.948Z" fill="#FF1212"/>
<path d="M805.862 598.662C805.596 600.202 804.619 607.817 804.619 608.258C804.619 608.698 804.73 608.742 805.818 608.742H807.038L808.436 607.201C809.213 606.365 810.234 605.374 810.722 605.022C812.875 603.482 816.359 603.041 826.035 603.041H831.583L830.695 603.79L829.807 604.56H824.037C817.979 604.56 816.758 604.67 814.162 605.44C812.653 605.881 812.453 606.035 810.522 607.994C809.235 609.27 808.303 610.062 808.015 610.062C807.659 610.062 807.526 610.239 807.46 610.833L807.371 611.603H808.703H810.034L812.142 609.534C814.073 607.663 814.428 607.421 815.737 607.025C817.957 606.343 820.243 606.101 824.304 606.101H827.965L824.481 608.984C822.573 610.569 820.598 612.043 820.065 612.263C819.555 612.506 817.247 613.232 814.939 613.914C812.631 614.574 810.722 615.169 810.678 615.191C810.655 615.235 811.232 615.719 812.009 616.269C812.764 616.819 813.629 617.546 813.918 617.854L814.473 618.426L813.141 619.813C801.623 631.588 801.956 631.214 801.956 631.984V632.732H823.926H845.875L846.008 632.006C846.141 631.17 847.45 621.441 847.45 621.221C847.45 621.133 846.918 621.067 846.274 621.067C845.098 621.067 845.076 621.067 843.789 622.52C843.078 623.312 841.769 624.589 840.881 625.359C838.462 627.384 838.019 627.494 830.695 627.604L824.703 627.67L828.143 624.369C832.271 620.429 831.783 620.649 840.637 618.404C841.081 618.294 841.458 618.118 841.458 618.03C841.458 617.942 841.059 617.59 840.571 617.26L839.705 616.643L837.419 617.216C834.69 617.92 831.161 619.02 830.296 619.461C829.963 619.615 827.81 621.529 825.524 623.708L821.374 627.67H819.932H818.489L819.821 626.372C824.171 622.124 828.343 618.338 829.097 617.964C829.941 617.524 835.932 615.741 837.53 615.455C838.396 615.279 838.507 615.147 838.129 614.773C837.974 614.618 839.727 612.66 843.789 608.5C849.425 602.733 849.692 602.425 849.625 601.699C849.559 601.017 849.47 600.928 848.893 600.862C848.294 600.774 847.739 601.281 842.124 607.003L835.999 613.232L835.244 612.55L834.512 611.889L840.526 605.749C846.23 599.938 846.563 599.564 846.563 598.772V597.957H826.257H805.973L805.862 598.662Z" fill="#FF1212"/>
<path d="M976.383 599.129C976.383 600.23 976.161 600.098 978.935 600.56C980.777 600.846 982.087 601.396 982.708 602.101L983.152 602.607L982.708 602.453C982.464 602.365 981.598 602.167 980.777 601.99L979.268 601.704V602.431V603.135L981.221 603.443L983.152 603.751V607.933V612.093L981.199 613.766L979.246 615.416L979.867 615.856C980.2 616.099 981.088 616.803 981.82 617.419L983.152 618.52L983.263 627.742L983.374 636.942L984.483 637.206C985.837 637.514 987.546 638.372 988.589 639.275L989.366 639.935L988.256 639.407C987.657 639.121 986.858 638.812 986.525 638.724C985.926 638.592 985.904 638.614 985.97 639.187C986.037 639.737 986.192 639.847 987.368 640.155C989.477 640.727 991.008 641.674 991.785 642.862C992.473 643.919 992.473 643.919 993.76 643.919H995.025V630.141V616.363L998.975 616.451C1002.48 616.517 1003.01 616.583 1004.06 617.045C1004.68 617.309 1005.41 617.771 1005.68 618.057L1006.17 618.586L1005.1 618.234C1004.35 617.991 1002.81 617.859 1000.2 617.771L996.356 617.683V631.549V645.437L995.468 645.503L994.581 645.569L995.025 646.296C995.424 646.956 995.535 647 996.689 647H997.91V633.112V619.202L1001.53 619.334C1006.17 619.51 1006.92 619.708 1007.45 620.897C1007.67 621.403 1007.92 621.975 1007.98 622.173C1008.07 622.481 1008.36 622.569 1009.34 622.569H1010.56V615.306V608.043H1009.36H1008.16L1007.81 609.166C1006.72 612.423 1004.66 613.766 1000.42 613.942L997.91 614.052V609.276V604.522H1002.53C1011.98 604.544 1014.38 604.962 1015.4 606.723C1015.89 607.581 1015.93 607.603 1017.11 607.603H1018.33V602.871V598.139H997.355H976.383V599.129ZM1008.72 601.88C1010.29 602.079 1011.87 602.717 1013 603.619C1013.69 604.169 1013.67 604.169 1011.89 603.619C1010.58 603.201 1009.76 603.135 1003.41 603.025L996.356 602.915V608.461V613.986H995.69H995.025V607.823V601.66H1001.08C1004.39 601.66 1007.85 601.77 1008.72 601.88Z" fill="#181818"/>
<path d="M1131.51 599.129C1131.51 600.054 1131.53 600.098 1132.24 600.208C1134.86 600.582 1136.1 600.846 1136.83 601.22C1137.72 601.66 1138.28 602.453 1137.54 602.233C1137.21 602.145 1134.66 601.66 1134.46 601.66C1134.42 601.66 1134.39 601.991 1134.39 602.409V603.135L1135.79 603.289C1136.55 603.377 1137.43 603.509 1137.79 603.575L1138.39 603.685V607.845V611.983L1137.01 613.171C1136.23 613.832 1135.32 614.624 1134.99 614.91L1134.35 615.416L1135.44 616.187C1136.01 616.605 1136.92 617.331 1137.46 617.815L1138.39 618.674V623.494C1138.39 629.216 1138.3 629.613 1136.7 630.295C1136.04 630.603 1134.99 630.801 1133.59 630.867L1131.51 630.999V631.946V632.914H1144.33C1160.07 632.914 1163.38 632.672 1168.68 631.109C1176.27 628.886 1181.24 624.726 1182.66 619.378C1182.86 618.608 1183.02 617.133 1183.02 615.857C1183.04 611.675 1181.97 608.88 1179.27 606.04C1174.89 601.418 1168.17 598.887 1158.87 598.359C1156.83 598.249 1149.82 598.139 1143.34 598.139H1131.51V599.129ZM1157.25 600.56C1158.29 600.692 1159.83 601.022 1160.69 601.286C1162.16 601.726 1165.04 603.421 1165.71 604.213C1165.86 604.412 1165.62 604.324 1165.15 604.015C1162.93 602.497 1160.05 601.88 1155.19 601.88H1151.48L1151.53 615.746C1151.57 624.924 1151.53 629.59 1151.37 629.546C1151.26 629.502 1150.93 629.15 1150.66 628.732L1150.15 628.006V614.294V600.582L1151.55 600.494C1154.48 600.34 1155.43 600.34 1157.25 600.56ZM1160.91 603.641C1162.91 603.949 1165.06 604.698 1166.28 605.468C1167.1 606.018 1167.53 606.524 1168.17 607.713C1169.3 609.826 1169.72 611.631 1169.86 614.91C1170.03 619.642 1169.23 623.164 1167.37 625.871C1165.11 629.106 1161.91 630.515 1156.59 630.581C1155.05 630.581 1153.63 630.537 1153.43 630.449C1153.06 630.295 1153.03 629.436 1153.03 616.847V603.421H1156.32C1158.12 603.421 1160.18 603.509 1160.91 603.641Z" fill="#181818"/>
<path d="M771.333 601.105C771.333 601.325 770.889 601.457 769.624 601.545C767.05 601.743 765.629 602.227 765.119 603.085C764.697 603.768 764.675 604.362 764.675 624.523V645.278H763.898C763.055 645.278 762.988 645.41 763.388 646.268C763.61 646.774 763.765 646.818 764.919 646.818H766.228L766.273 625.931L766.339 605.044L766.872 604.472C767.538 603.768 769.025 603.305 771.244 603.107L772.908 602.953L772.842 601.941C772.775 600.972 772.753 600.928 772.065 600.862C771.555 600.818 771.333 600.884 771.333 601.105Z" fill="black"/>
<path d="M1019.81 601.154C1019.73 601.22 1019.66 603.003 1019.66 605.116V608.924H1018.77H1017.88L1018.26 609.694C1018.62 610.464 1018.66 610.464 1020.04 610.464H1021.43V606.216C1021.43 603.905 1021.37 601.77 1021.3 601.484C1021.19 601.132 1020.99 601 1020.57 601C1020.24 601 1019.88 601.066 1019.81 601.154Z" fill="#121212"/>
<path d="M1181.22 607.911C1181.22 608.021 1181.49 608.395 1181.8 608.769C1183.97 611.344 1184.99 615.988 1184.26 619.906C1182.77 627.565 1174.69 632.738 1162.16 633.992C1160.82 634.146 1154.52 634.234 1147.13 634.234H1134.39V635.005V635.775H1148.26C1162.93 635.775 1164.75 635.687 1168.99 634.763C1175.14 633.398 1179.4 631.263 1182.51 627.962C1184.86 625.475 1186.1 622.261 1186.1 618.674C1186.1 615.328 1185.21 612.511 1183.37 610.134C1182.33 608.769 1181.22 607.625 1181.22 607.911Z" fill="#121212"/>
<path d="M1011.89 617.397V623.89H1011.2C1010.56 623.89 1010.54 623.912 1010.67 624.594C1010.92 625.651 1010.92 625.651 1012.36 625.651H1013.67V618.762C1013.67 614.998 1013.6 611.675 1013.53 611.389C1013.42 611.014 1013.22 610.904 1012.65 610.904H1011.89V617.397Z" fill="#121212"/>
<path d="M680.565 617.876V620.847H690.552H700.538V617.876V614.905H690.552H680.565V617.876Z" fill="#FF1212"/>
<path d="M1130.26 617.969C1129.29 618.696 1128.45 619.466 1128.36 619.664C1128.29 619.862 1128 620.721 1127.74 621.579C1126.29 626.245 1122.12 630.361 1116.55 632.606C1112.2 634.366 1107.94 635.027 1102.1 634.829C1094.54 634.587 1089.48 633.002 1084.24 629.216C1083.53 628.688 1083.53 628.732 1084.46 629.7C1086.59 631.945 1090.96 634.278 1094.98 635.313C1098.53 636.237 1101.3 636.501 1106.32 636.369C1110.25 636.281 1111.33 636.171 1113.31 635.709C1120.5 634.014 1125.76 630.515 1128.27 625.717C1128.6 625.1 1129.13 623.758 1129.47 622.767C1130.04 620.985 1130.11 620.897 1131.62 619.752C1132.48 619.092 1133.37 618.432 1133.62 618.256C1134.04 617.947 1134.04 617.947 1133.62 617.639C1132.06 616.517 1132.17 616.517 1130.26 617.969Z" fill="#121212"/>
<path d="M664.188 618.338L661.924 619.791V626.922V634.053H656.82H651.716V634.823V635.594H657.708H663.7V628.44V621.287L665.542 620.099C666.54 619.461 667.694 618.734 668.116 618.47L668.87 618.03L667.739 617.458C667.117 617.15 666.562 616.885 666.54 616.885C666.496 616.885 665.453 617.546 664.188 618.338Z" fill="black"/>
<path d="M701.87 620.077V622.388H692.639H683.429L683.495 623.092L683.562 623.818L693.504 623.884L703.424 623.928V620.847V617.766H702.647H701.87V620.077Z" fill="black"/>
<path d="M848.716 624.083C848.672 624.193 848.339 626.46 847.984 629.145L847.362 634.053H826.102H804.842V634.823V635.594H826.923C842.413 635.594 849.004 635.527 849.004 635.351C849.004 635.219 849.315 632.886 849.67 630.157C850.536 623.73 850.536 623.928 849.581 623.928C849.16 623.928 848.76 623.994 848.716 624.083Z" fill="black"/>
<path d="M728.058 633.723C728.058 634.009 726.771 634.053 717.738 634.053H707.419V634.823V635.594H718.515H729.611V634.625C729.611 633.811 729.522 633.635 729.123 633.525C728.324 633.327 728.058 633.371 728.058 633.723Z" fill="black"/>
<path d="M800.847 633.833C800.847 633.987 796.631 634.053 788.641 634.053H776.436V634.823V635.594H789.418H802.401V634.603C802.401 633.613 802.401 633.613 801.624 633.613C801.202 633.613 800.847 633.701 800.847 633.833Z" fill="black"/>
<defs>
<filter id="filter0_d_153_437" x="1282.93" y="876.487" width="520" height="321.57" filterUnits="userSpaceOnUse" color-interpolation-filters="sRGB">
<feFlood flood-opacity="0" result="BackgroundImageFix"/>
<feColorMatrix in="SourceAlpha" type="matrix" values="0 0 0 0 0 0 0 0 0 0 0 0 0 0 0 0 0 0 127 0" result="hardAlpha"/>
<feOffset dy="4"/>
<feGaussianBlur stdDeviation="27"/>
<feComposite in2="hardAlpha" operator="out"/>
<feColorMatrix type="matrix" values="0 0 0 0 0 0 0 0 0 0 0 0 0 0 0 0 0 0 0.25 0"/>
<feBlend mode="normal" in2="BackgroundImageFix" result="effect1_dropShadow_153_437"/>
<feBlend mode="normal" in="SourceGraphic" in2="effect1_dropShadow_153_437" result="shape"/>
</filter>
<filter id="filter1_d_153_437" x="1282.93" y="876.487" width="208.5" height="321.57" filterUnits="userSpaceOnUse" color-interpolation-filters="sRGB">
<feFlood flood-opacity="0" result="BackgroundImageFix"/>
<feColorMatrix in="SourceAlpha" type="matrix" values="0 0 0 0 0 0 0 0 0 0 0 0 0 0 0 0 0 0 127 0" result="hardAlpha"/>
<feOffset dy="4"/>
<feGaussianBlur stdDeviation="27"/>
<feComposite in2="hardAlpha" operator="out"/>
<feColorMatrix type="matrix" values="0 0 0 0 0 0 0 0 0 0 0 0 0 0 0 0 0 0 0.25 0"/>
<feBlend mode="normal" in2="BackgroundImageFix" result="effect1_dropShadow_153_437"/>
<feBlend mode="normal" in="SourceGraphic" in2="effect1_dropShadow_153_437" result="shape"/>
</filter>
<filter id="filter2_d_153_437" x="1333.19" y="675.307" width="350.49" height="309.18" filterUnits="userSpaceOnUse" color-interpolation-filters="sRGB">
<feFlood flood-opacity="0" result="BackgroundImageFix"/>
<feColorMatrix in="SourceAlpha" type="matrix" values="0 0 0 0 0 0 0 0 0 0 0 0 0 0 0 0 0 0 127 0" result="hardAlpha"/>
<feOffset dy="4"/>
<feGaussianBlur stdDeviation="27"/>
<feComposite in2="hardAlpha" operator="out"/>
<feColorMatrix type="matrix" values="0 0 0 0 0 0 0 0 0 0 0 0 0 0 0 0 0 0 0.25 0"/>
<feBlend mode="normal" in2="BackgroundImageFix" result="effect1_dropShadow_153_437"/>
<feBlend mode="normal" in="SourceGraphic" in2="effect1_dropShadow_153_437" result="shape"/>
</filter>
<filter id="filter3_d_153_437" x="1391.7" y="468.7" width="208.6" height="243.6" filterUnits="userSpaceOnUse" color-interpolation-filters="sRGB">
<feFlood flood-opacity="0" result="BackgroundImageFix"/>
<feColorMatrix in="SourceAlpha" type="matrix" values="0 0 0 0 0 0 0 0 0 0 0 0 0 0 0 0 0 0 127 0" result="hardAlpha"/>
<feOffset dy="4"/>
<feGaussianBlur stdDeviation="24.65"/>
<feComposite in2="hardAlpha" operator="out"/>
<feColorMatrix type="matrix" values="0 0 0 0 0 0 0 0 0 0 0 0 0 0 0 0 0 0 0.25 0"/>
<feBlend mode="normal" in2="BackgroundImageFix" result="effect1_dropShadow_153_437"/>
<feBlend mode="normal" in="SourceGraphic" in2="effect1_dropShadow_153_437" result="shape"/>
</filter>
<linearGradient id="paint0_linear_153_437" x1="1526.5" y1="180.5" x2="162" y2="1111" gradientUnits="userSpaceOnUse">
<stop stop-color="#FFBB00"/>
<stop offset="1" stop-color="#FFDB79"/>
</linearGradient>
</defs>
</svg>
