<svg width="69" height="9" viewBox="0 0 69 9" fill="none" xmlns="http://www.w3.org/2000/svg">
<path d="M10.1935 0.00628565C9.26779 0.0890921 8.46181 0.475825 7.78382 1.16376L7.73593 1.21198L8.18599 1.70791L8.63605 2.20293L8.66495 2.17654C8.93251 1.92448 9.1208 1.78708 9.36936 1.66332C9.61215 1.5423 9.8665 1.46313 10.1522 1.42036C10.286 1.40035 10.6452 1.39671 10.7757 1.4149C11.3901 1.49771 11.9178 1.76888 12.3381 2.21567C13.0054 2.92544 13.2498 3.93641 12.9922 4.91916C12.7262 5.93195 11.9781 6.73453 11.0779 6.97203C10.8921 7.02117 10.6015 7.05575 10.2885 7.06485C9.82768 7.07941 9.29917 6.90015 8.769 6.55072C8.5865 6.43061 8.41226 6.29502 7.61288 5.64895C6.98197 5.13937 4.91003 3.45322 4.42115 3.05192L4.32206 2.97003L4.31958 3.79263C4.31793 4.44234 4.32041 4.61706 4.32784 4.62525C4.35261 4.65072 7.88787 7.38425 7.95559 7.42974C8.69386 7.92476 9.43873 8.21868 10.1316 8.28784C10.2422 8.29876 10.5874 8.2933 10.7798 8.27692C11.7691 8.19593 12.6717 7.72548 13.3481 6.94019C14.4076 5.70901 14.6652 3.9082 14.0005 2.38583C13.7156 1.73248 13.2572 1.15193 12.6998 0.737894C12.1771 0.349341 11.5792 0.108201 10.9326 0.0235749C10.7683 0.00264581 10.3504 -0.00736376 10.1935 0.00628565Z" fill="#FF2020"/>
<path d="M3.67126 0.170982C2.67121 0.227399 1.74714 0.686019 1.05594 1.46768C0.761954 1.79981 0.559633 2.11466 0.375479 2.52687C0.163247 3.00096 0.0451577 3.47505 0.00634495 4.01375C-0.00604209 4.18664 0.000564332 4.59976 0.018732 4.76537C0.100486 5.50881 0.34575 6.17945 0.751219 6.7682C1.69263 8.13223 3.30955 8.74827 4.84555 8.32696C5.4905 8.14952 6.07847 7.80009 6.56652 7.30234L6.62267 7.24502L6.17261 6.74909L5.72255 6.25407L5.68291 6.29229C5.28322 6.67811 4.85959 6.90742 4.35915 7.00752C3.92313 7.09487 3.46811 7.0612 3.0486 6.91197C2.62744 6.76183 2.274 6.52069 1.96763 6.1749C1.56711 5.72174 1.32928 5.15757 1.27808 4.53788C1.26487 4.37591 1.27313 4.08017 1.2946 3.92366C1.35818 3.46413 1.5027 3.0592 1.7397 2.67701C2.13113 2.04641 2.72323 1.60417 3.36819 1.46222C3.50775 1.43128 3.59693 1.41945 3.77283 1.40762C3.84302 1.40307 3.94542 1.39488 3.99993 1.38942C4.22785 1.36667 4.56725 1.42218 4.86289 1.52864C5.14696 1.63147 5.45416 1.79799 5.73824 2.00273C5.97277 2.17198 7.55666 3.4523 9.74999 5.24583C9.91019 5.37687 10.0431 5.48424 10.0448 5.48424C10.0473 5.48424 10.0481 5.11298 10.0473 4.65982L10.0448 3.83448L8.25116 2.44588C7.26515 1.68243 6.42696 1.03726 6.38897 1.01179C5.65483 0.529506 4.96198 0.251058 4.30299 0.174621C4.1816 0.160062 3.88514 0.158242 3.67126 0.170982Z" fill="#171717"/>
<path d="M3.95859 1.6715C3.93134 1.67605 3.84628 1.68333 3.76866 1.68878C3.27648 1.72336 2.83385 1.91173 2.4449 2.25296C1.58606 3.00732 1.27639 4.29946 1.70415 5.34774C1.75783 5.47968 1.88583 5.7281 1.89491 5.71809C1.89656 5.71627 1.89078 5.69079 1.8817 5.66076C1.81481 5.44874 1.76609 5.10478 1.76609 4.85636C1.76691 4.2112 1.97502 3.57331 2.35901 3.03644C2.43829 2.92542 2.67943 2.65971 2.78348 2.56872C3.03369 2.34851 3.35328 2.16378 3.64479 2.06824C3.84711 2.00272 4.02053 1.97087 4.26827 1.95358C4.34342 1.94812 4.44582 1.93993 4.49536 1.93538C4.73154 1.91355 5.09985 1.97542 5.40375 2.09008C5.44421 2.10464 5.47394 2.11374 5.46981 2.10919C5.46486 2.10464 5.40044 2.06551 5.3253 2.02274C5.0214 1.84985 4.75301 1.74702 4.45407 1.68878C4.34424 1.66786 4.04943 1.65694 3.95859 1.6715Z" fill="#FF2727"/>
<path d="M10.3447 1.68059C9.92929 1.71607 9.53869 1.85621 9.20259 2.08916C9.10432 2.1574 8.95732 2.27843 8.88218 2.35487L8.8252 2.41128L8.97714 2.57872C9.05972 2.66971 9.12992 2.74524 9.13239 2.74524C9.13487 2.74524 9.17534 2.70793 9.22323 2.66243C9.62457 2.27934 10.0953 2.04912 10.6477 1.96631C10.7807 1.94629 11.149 1.94356 11.2754 1.96176C11.4653 1.98815 11.6998 2.04275 11.8072 2.08552C11.827 2.0928 11.8452 2.09826 11.8468 2.09553C11.8526 2.09007 11.7353 2.01727 11.6115 1.95084C11.3604 1.81526 11.0978 1.72972 10.8228 1.69423C10.689 1.67786 10.4586 1.67058 10.3447 1.68059Z" fill="#141414"/>
<path d="M14.3479 2.6597C14.3925 2.78619 14.4619 3.02824 14.4949 3.17292C14.7113 4.13657 14.6155 5.14663 14.2232 6.04385C13.9598 6.64715 13.5568 7.19131 13.0588 7.61808C12.7186 7.90927 12.2991 8.15768 11.887 8.31329C11.4023 8.49619 10.9753 8.56808 10.3725 8.56899C9.9307 8.56899 9.39145 8.44159 8.86211 8.21137C8.81091 8.18862 8.7688 8.17224 8.7688 8.17406C8.7688 8.17952 9.04875 8.33331 9.15775 8.38699C9.61359 8.61448 10.0637 8.75826 10.5319 8.8256C10.702 8.85016 11.2305 8.83651 11.4857 8.80012C12.968 8.59265 14.2125 7.48613 14.6733 5.9665C14.8632 5.33954 14.9111 4.6689 14.8128 4.01918C14.7427 3.55783 14.5866 3.07647 14.3768 2.67699C14.3182 2.56689 14.3132 2.56416 14.3479 2.6597Z" fill="#141414"/>
<path d="M10.2883 4.96735C10.2883 5.41414 10.2916 5.78449 10.2949 5.78995C10.3007 5.79996 10.4816 5.95102 10.522 5.97923L10.5443 5.99561V5.16754V4.34039L10.4246 4.24757C10.3577 4.19752 10.3007 4.15567 10.2966 4.15567C10.2916 4.15567 10.2883 4.4605 10.2883 4.96735Z" fill="#FF2727"/>
<path d="M6.78635 7.47341C6.77561 7.48705 6.71863 7.54438 6.65918 7.60171C5.88127 8.35789 4.87875 8.75736 3.82254 8.73006C3.33202 8.71732 2.93068 8.63087 2.41455 8.42886C2.37161 8.41157 2.47979 8.478 2.621 8.55535C3.06115 8.79467 3.4947 8.92843 4.02487 8.98849C4.17681 9.00578 4.59054 9.00305 4.75983 8.98394C5.64592 8.88293 6.42878 8.49529 7.07208 7.8383L7.12163 7.78734L6.96885 7.619C6.88462 7.52618 6.81443 7.44975 6.81112 7.44975C6.80865 7.44975 6.79791 7.46067 6.78635 7.47341Z" fill="#FF2727"/>
<path d="M51.6838 1.68962C50.5957 1.81367 49.8185 2.24491 49.374 2.97152C49.2213 3.21963 49.104 3.4766 49.0713 3.63609C49.055 3.72175 48.8641 3.91079 48.6241 4.0821C48.5614 4.12641 48.5641 4.12936 48.7523 4.26818C48.8559 4.34498 48.9622 4.43654 48.9922 4.47199C49.025 4.51334 49.0277 4.52515 49.0004 4.50152C48.9132 4.43064 48.9213 4.51039 49.0113 4.599C49.074 4.65807 49.1286 4.75849 49.1804 4.90913C49.284 5.2045 49.4176 5.41421 49.6767 5.68004C49.7967 5.80115 49.9003 5.92225 49.9112 5.94883C49.9385 6.03153 50.3612 6.37711 50.5848 6.50117C50.8493 6.64885 51.2011 6.78177 51.5338 6.86152C51.921 6.95013 52.8537 6.97376 53.2709 6.90287C53.7645 6.82017 54.2744 6.62227 54.6371 6.37121C54.8662 6.21171 55.1525 5.90452 55.3052 5.65346C55.4225 5.46147 55.5752 5.05386 55.5752 4.93572C55.5752 4.89732 55.6188 4.85301 55.7961 4.71124C55.837 4.67579 55.8533 4.69942 55.927 4.91504C56.1342 5.49396 56.6033 5.95769 57.2796 6.24715C58.2531 6.66362 59.5811 6.66362 60.5056 6.25011C61.2391 5.92225 61.6945 5.43193 61.8909 4.7644C61.9781 4.46608 61.9891 4.45131 62.2427 4.25046C62.3463 4.16776 62.439 4.09687 62.4472 4.09096C62.4526 4.08505 62.4254 4.04961 62.3872 4.01417C62.349 3.97872 62.2999 3.89602 62.2836 3.83104C62.2318 3.64791 62.1227 3.43229 61.9972 3.25507C61.8718 3.08376 61.7273 2.9213 61.7 2.92721C61.6891 2.93016 61.6318 2.86814 61.5691 2.79134C60.9419 1.9968 59.7802 1.57442 58.5449 1.68371C58.0922 1.72506 57.8413 1.77823 57.5004 1.89933C57.0041 2.0795 56.5596 2.37783 56.2951 2.71159C56.1179 2.93903 55.9133 3.31414 55.8452 3.54748C55.807 3.67449 55.7606 3.76606 55.7115 3.80741C55.6052 3.89897 55.5479 3.9226 55.5479 3.86648C55.5479 3.77492 55.327 3.34959 55.1798 3.1576C54.9971 2.92426 54.9262 2.89177 55.0816 3.11625C55.1934 3.27575 55.3379 3.58884 55.3679 3.73652L55.387 3.81922L55.3052 3.75424C55.2479 3.70994 55.2179 3.65382 55.207 3.57111C55.1525 3.22849 54.8089 2.70273 54.438 2.3985C54.0699 2.09722 53.4781 1.83139 52.9573 1.73688C52.6437 1.6778 51.9919 1.65417 51.6838 1.68962ZM52.5346 2.02929C52.7418 2.08836 52.9082 2.17993 53.0336 2.30103L53.1345 2.3985L53.0391 2.34238C52.8591 2.23309 52.63 2.17993 52.3573 2.17993C51.5801 2.18584 51.1111 2.60526 50.9066 3.4766C50.852 3.70698 50.8439 3.81627 50.8439 4.3184C50.8439 4.97411 50.8902 5.25176 51.0593 5.63279L51.152 5.83954L51.0593 5.7214C50.7593 5.33446 50.6039 4.57241 50.6693 3.77787C50.7348 2.93607 51.0102 2.39259 51.4902 2.14744C51.801 1.98794 52.2183 1.94068 52.5346 2.02929ZM59.2812 2.02929C59.483 2.08246 59.6602 2.17993 59.8156 2.32466L59.9247 2.42804L59.7993 2.3542C59.5893 2.23014 59.4011 2.18288 59.1203 2.17993C58.4931 2.17697 58.054 2.45167 57.814 3.00105C57.6804 3.30233 57.6259 3.53272 57.5877 3.97281C57.5332 4.58127 57.6204 5.21927 57.8222 5.65937L57.9149 5.86908L57.8222 5.75093C57.5741 5.43194 57.435 4.94162 57.4104 4.29477C57.3559 2.81202 57.8877 1.9968 58.9157 1.98794C59.0221 1.98794 59.1857 2.00566 59.2812 2.02929ZM53.1154 2.51665C53.3091 2.61117 53.3145 2.62003 53.41 2.82383C53.6499 3.35549 53.7045 4.36565 53.5272 5.05682C53.3772 5.65051 53.0227 6.05516 52.5346 6.19399C52.221 6.27964 51.7192 6.22943 51.4765 6.0847C51.1493 5.88976 50.9475 4.91799 51.0484 4.03484C51.1329 3.31119 51.4111 2.77953 51.8256 2.56095C52.0683 2.43099 52.2264 2.3985 52.5891 2.40736C52.8946 2.41622 52.93 2.42213 53.1154 2.51665ZM59.6957 2.44576C59.9411 2.52256 60.0665 2.62003 60.1456 2.78839C60.4101 3.35549 60.451 4.55174 60.2274 5.22222C60.0447 5.76275 59.6875 6.10833 59.2075 6.21171C58.883 6.27964 58.3622 6.19694 58.1495 6.0463C58.0704 5.99018 57.9395 5.69481 57.8686 5.41126C57.7895 5.09521 57.754 4.59604 57.784 4.19434C57.8577 3.21963 58.2176 2.62889 58.8503 2.44576C59.0521 2.38669 59.5075 2.38669 59.6957 2.44576ZM61.8691 3.17827C62 3.39094 62.12 3.67745 62.12 3.77787C62.12 3.87534 61.9618 3.66859 61.9427 3.54748C61.9318 3.48546 61.88 3.33777 61.8254 3.21963C61.7709 3.10148 61.7218 2.99515 61.7164 2.98038C61.7109 2.96856 61.7136 2.9597 61.7191 2.9597C61.7273 2.9597 61.7954 3.06013 61.8691 3.17827ZM55.6788 4.41882C55.7034 4.45131 55.7115 4.46608 55.6952 4.45722C55.6761 4.4454 55.6025 4.48971 55.5261 4.55469C55.4225 4.64625 55.387 4.69647 55.3707 4.78212C55.2916 5.24881 54.918 5.81296 54.4789 6.12605C53.9281 6.52184 53.35 6.70202 52.5482 6.73156C51.572 6.767 50.7893 6.5691 50.2003 6.14377C49.963 5.97246 49.8267 5.8425 50.0312 5.98132C50.3476 6.19694 50.833 6.38893 51.2938 6.48049C51.7165 6.5632 52.5973 6.57206 52.9845 6.49231C53.6963 6.35053 54.3017 6.02563 54.6944 5.57667C54.9234 5.3197 55.0652 5.05386 55.1661 4.71124C55.2289 4.48676 55.2507 4.44836 55.357 4.3627C55.477 4.26523 55.4797 4.26523 55.5561 4.31249C55.5997 4.33907 55.6543 4.38928 55.6788 4.41882Z" fill="#181818"/>
<path d="M16.3363 1.70165C16.3311 1.72259 16.3285 2.0277 16.3311 2.38066L16.3389 3.02378L16.4813 3.03275L16.6238 3.04173L16.6885 2.89815C16.7921 2.67081 17.0019 2.43151 17.178 2.33879C17.3463 2.25204 17.6623 2.20418 18.0689 2.20119H18.2942V2.29093C18.2942 2.33879 18.2916 2.38066 18.2891 2.38066C18.2839 2.38066 18.1181 2.39562 17.9187 2.40758C17.5095 2.44049 17.3334 2.49732 17.1547 2.66184C17.0433 2.76354 16.818 3.10753 16.818 3.17932C16.818 3.20325 16.7869 3.21821 16.7403 3.21821C16.6678 3.21821 16.6626 3.22718 16.6626 3.3229V3.42759H16.8258H16.9863L17.0511 3.28701C17.1495 3.07463 17.3463 2.84131 17.5043 2.75756C17.6519 2.6738 17.9058 2.62295 18.1466 2.61996H18.2942V3.09557V3.56818L18.0948 3.71774C17.9835 3.8015 17.8488 3.89722 17.7944 3.9361L17.6986 4.00191L17.9187 4.15446C18.0404 4.23822 18.1777 4.34291 18.2217 4.39077L18.3072 4.47752L18.2942 4.57922V5.48257V6.38892H18.9806H19.6669V5.41976V4.44761L19.7549 4.36983C19.8016 4.32796 19.9362 4.22924 20.0528 4.14848L20.2626 4.00191L20.146 3.92414L20.0295 3.84338V3.23316V2.61996H20.348C20.7313 2.61996 20.9385 2.65286 21.1095 2.73961C21.2131 2.79046 21.2493 2.82636 21.2882 2.92208L21.3322 3.04173L21.4772 3.03275L21.6223 3.02378V2.35075V1.67772L18.9857 1.66875C16.8646 1.66277 16.3466 1.66875 16.3363 1.70165ZM20.3765 2.2311C20.651 2.26101 20.8686 2.35673 21.0266 2.51527L21.1043 2.59304L20.9877 2.53322C20.8194 2.44946 20.6096 2.41656 20.1978 2.40459L19.8352 2.39562L19.8275 3.02976C19.8249 3.37973 19.8145 3.66689 19.8067 3.66689C19.8016 3.66689 19.7653 3.64595 19.7316 3.61903L19.6669 3.57117V2.88618V2.20119H19.8948C20.0191 2.20119 20.2367 2.21614 20.3765 2.2311Z" fill="#FF1212"/>
<path d="M25.2107 1.79848L25.219 1.9331L25.3589 1.94992C25.592 1.98077 25.8718 2.10137 25.9321 2.19952C25.9541 2.23598 25.9486 2.23598 25.8087 2.1855C25.7456 2.16306 25.6551 2.14343 25.6112 2.14343C25.5399 2.14343 25.5317 2.15185 25.5399 2.21915C25.5481 2.29207 25.5618 2.29768 25.773 2.33975C25.8965 2.36499 26.0089 2.39303 26.0199 2.40705C26.0556 2.44071 26.0611 4.98718 26.0281 5.20874C25.9952 5.42749 25.9513 5.53125 25.8416 5.63502C25.7648 5.71074 25.5042 5.80048 25.2821 5.83133L25.1504 5.84816V5.97436V6.09776H26.5219H27.8933V5.97436V5.85096L27.7507 5.81731C27.4188 5.7472 27.4051 5.73878 27.3694 5.6266C27.3448 5.55369 27.331 5.13582 27.3256 4.2468C27.3173 3.54568 27.3201 2.97636 27.3256 2.98478C27.3338 2.99319 27.5998 3.55409 27.9153 4.23277C28.2307 4.91146 28.5489 5.59015 28.6202 5.74159L28.7519 6.01643L29.1332 6.00801L29.5144 5.9996L30.3483 4.16266C30.8064 3.15305 31.1931 2.30609 31.2096 2.28366C31.2288 2.25281 31.237 2.31731 31.237 2.50802V2.77444L30.4607 4.48518L29.6845 6.19591L29.3526 6.20433L29.0207 6.21274L29.0646 6.3109L29.1112 6.40906L29.4952 6.40064L29.882 6.39223L30.4498 5.14423C30.7625 4.45713 31.0669 3.78125 31.1273 3.64383L31.2397 3.39143V4.99279V6.59696L31.3851 6.66987C31.4619 6.70914 31.5771 6.78766 31.6375 6.84375C31.6978 6.89704 31.717 6.92228 31.6786 6.89984C31.5908 6.84095 31.5689 6.84375 31.5689 6.90825C31.5689 6.94471 31.6238 6.98678 31.7499 7.05128C31.92 7.13542 31.9365 7.15224 32.0133 7.32051L32.0955 7.5H32.2574H32.4192V4.86378C32.4192 3.02965 32.4274 2.21074 32.4494 2.16306C32.5042 2.03686 32.6003 2.00321 33.1269 1.93029C33.2119 1.91627 33.2147 1.91066 33.2147 1.79007V1.66667L31.9063 1.67228L30.5979 1.68069L29.9944 3.01843C29.6625 3.75601 29.3855 4.35898 29.3773 4.35898C29.3691 4.35898 29.1057 3.83454 28.7903 3.19511C28.4255 2.44912 28.206 2.03125 28.1814 2.03125C28.1594 2.03125 28.1402 2.04528 28.1402 2.0593C28.1402 2.07612 28.4063 2.63141 28.7327 3.29608C29.1112 4.07292 29.3169 4.52164 29.306 4.55249C29.2922 4.58053 29.0454 4.10377 28.5709 3.13902L27.8522 1.68069L26.5274 1.67228L25.2025 1.66667L25.2107 1.79848ZM27.1253 3.9383C27.139 5.17228 27.1473 5.40224 27.1857 5.51723L27.2323 5.65465L27.1747 5.60136C27.0979 5.53125 27.0266 5.37981 26.9909 5.20593C26.9717 5.10777 26.9607 4.58614 26.9607 3.63542L26.9635 2.21354L27.0375 2.35377L27.1116 2.49399L27.1253 3.9383Z" fill="#FF1212"/>
<path d="M33.4672 1.80119C33.4672 1.95063 33.442 1.93568 33.7698 1.99546C33.9892 2.0373 34.1405 2.10903 34.2111 2.20467L34.2615 2.27341L34.2086 2.25249C34.1783 2.24054 34.0749 2.21364 33.9741 2.19272L33.795 2.15087V2.2495V2.34813L33.9993 2.384C34.1127 2.40193 34.2186 2.42584 34.2388 2.4348C34.2666 2.44676 34.2741 2.55435 34.2741 2.9937V3.53765L34.1934 3.62731C34.0749 3.75882 33.9211 3.89331 33.8253 3.9501L33.7396 4.00091L33.8329 4.05769C33.9337 4.11747 34.1909 4.3476 34.2161 4.39841C34.2262 4.41634 34.2136 4.41335 34.1909 4.38944C34.1682 4.36852 34.1304 4.35956 34.1052 4.36852C34.0699 4.38646 34.0825 4.40439 34.1682 4.46416L34.2741 4.53888V5.15158C34.2741 5.87485 34.259 5.9406 34.0926 6.03027C34.0245 6.06613 33.8909 6.09303 33.7244 6.10797L33.4672 6.1289V6.25741V6.38892H34.9297H36.3922V6.25741V6.1289L36.203 6.10797C36.0971 6.09602 35.9963 6.08108 35.9761 6.06912C35.9433 6.05717 35.9383 5.95256 35.9383 5.45045V4.84971L36.0845 4.71223C36.1627 4.63452 36.2812 4.5329 36.3442 4.48508L36.4628 4.39841L36.3392 4.31473C36.1955 4.21909 36.1904 4.22207 35.9332 4.46715L35.7618 4.62854V5.31894V6.01233L35.6861 5.92566L35.6105 5.83899V5.13364V4.4283L35.7189 4.32369C35.845 4.19816 36.0366 4.04275 36.0871 4.02183C36.1098 4.01585 36.0896 3.98596 36.0316 3.94412L35.9383 3.88136V3.28361C35.9383 2.88312 35.9484 2.65896 35.9685 2.60815C36.0139 2.49159 36.1652 2.41388 36.4149 2.38101C36.5334 2.36606 36.6569 2.35411 36.6897 2.35411C36.7426 2.35411 36.7477 2.34215 36.7401 2.21065C36.7326 2.07615 36.73 2.07018 36.6519 2.06121C36.5939 2.05523 36.5687 2.0642 36.5687 2.09409C36.5687 2.12696 36.5107 2.14191 36.3316 2.15685C36.0694 2.17777 35.8904 2.23755 35.8223 2.3302C35.7794 2.384 35.7744 2.45871 35.7668 3.04451C35.7618 3.40316 35.7492 3.69904 35.7391 3.69904C35.729 3.69904 35.6962 3.66916 35.666 3.6303C35.613 3.56455 35.6105 3.53765 35.6105 2.89507C35.6105 2.47366 35.6206 2.20766 35.6382 2.16881C35.6811 2.07615 35.8626 1.99546 36.082 1.97753C36.3972 1.95063 36.3922 1.95362 36.3922 1.80119V1.6667H34.9297H33.4672V1.80119Z" fill="#FF1212"/>
<path d="M37.2179 1.76234C37.1855 1.97155 37.0668 3.00566 37.0668 3.06543C37.0668 3.1252 37.0803 3.13118 37.2125 3.13118H37.3609L37.5308 2.92197C37.6253 2.8084 37.7494 2.6739 37.8087 2.62608C38.0704 2.41687 38.494 2.3571 39.6703 2.3571H40.3448L40.2369 2.45871L40.129 2.56332H39.4275C38.691 2.56332 38.5426 2.57826 38.2269 2.68287C38.0434 2.74265 38.0192 2.76357 37.7844 3.02957C37.628 3.20291 37.5147 3.31051 37.4796 3.31051C37.4364 3.31051 37.4202 3.33442 37.4121 3.41511L37.4013 3.51972H37.5632H37.7251L37.9814 3.23878C38.2161 2.98473 38.2593 2.95186 38.4185 2.89806C38.6883 2.80541 38.9661 2.77253 39.4599 2.77253H39.905L39.4815 3.16406C39.2494 3.37925 39.0093 3.57949 38.9446 3.60938C38.8825 3.64226 38.6019 3.74089 38.3213 3.83354C38.0408 3.9232 37.8087 4.0039 37.8033 4.00689C37.8006 4.01286 37.8708 4.07862 37.9652 4.15333C38.0569 4.22805 38.1622 4.32668 38.1972 4.36852L38.2647 4.44623L38.1028 4.63452C36.7026 6.2335 36.743 6.18269 36.743 6.2873V6.38892H39.414H42.0823L42.0985 6.29029C42.1146 6.17672 42.2738 4.85569 42.2738 4.8258C42.2738 4.81385 42.2091 4.80488 42.1308 4.80488C41.9878 4.80488 41.9851 4.80488 41.8287 5.00214C41.7423 5.10973 41.5832 5.28308 41.4752 5.38769C41.1812 5.66265 41.1272 5.67759 40.2369 5.69254L39.5084 5.7015L39.9266 5.25319C40.4284 4.71821 40.3691 4.74809 41.4456 4.44324C41.4995 4.4283 41.5454 4.40439 41.5454 4.39243C41.5454 4.38048 41.4968 4.33266 41.4375 4.28783L41.3322 4.20414L41.0544 4.28185C40.7225 4.37749 40.2935 4.52693 40.1883 4.5867C40.1478 4.60762 39.8861 4.86764 39.6083 5.16353L39.1037 5.7015H38.9284H38.753L38.9149 5.52517C39.4437 4.94834 39.9509 4.43428 40.0426 4.38347C40.1451 4.32369 40.8736 4.0816 41.0678 4.04275C41.1731 4.01884 41.1866 4.00091 41.1407 3.9501C41.1218 3.92918 41.3349 3.66318 41.8287 3.09831C42.5139 2.31525 42.5463 2.27341 42.5382 2.17478C42.5301 2.08213 42.5193 2.07018 42.4492 2.06121C42.3763 2.04926 42.3089 2.118 41.6263 2.89507L40.8817 3.74089L40.79 3.64824L40.7009 3.55857L41.4321 2.72471C42.1254 1.93568 42.1659 1.88488 42.1659 1.77728V1.6667H39.6973H37.2314L37.2179 1.76234Z" fill="#FF1212"/>
<path d="M43.5476 1.80179C43.5476 1.95194 43.521 1.93392 43.8543 1.99698C44.0756 2.03602 44.2329 2.11109 44.3076 2.20719L44.3609 2.27626L44.3076 2.25524C44.2782 2.24323 44.1743 2.2162 44.0756 2.19218L43.8943 2.15314V2.25224V2.34833L44.1289 2.39037L44.3609 2.43242V3.00299V3.57055L44.1263 3.79878L43.8916 4.02401L43.9663 4.08407C44.0063 4.1171 44.1129 4.2132 44.2009 4.29728L44.3609 4.44743L44.3742 5.70569L44.3876 6.96094L44.5209 6.99698C44.6836 7.03902 44.8889 7.15614 45.0142 7.27926L45.1075 7.36935L44.9742 7.29728C44.9022 7.25824 44.8062 7.2162 44.7662 7.20418C44.6942 7.18617 44.6916 7.18917 44.6996 7.26725C44.7075 7.34232 44.7262 7.35734 44.8675 7.39938C45.1209 7.47746 45.3048 7.60659 45.3982 7.76875C45.4808 7.91289 45.4808 7.91289 45.6355 7.91289H45.7875V6.03301V4.15314L46.2621 4.16515C46.6834 4.17416 46.7474 4.18317 46.8727 4.24623C46.9474 4.28226 47.0354 4.34533 47.0674 4.38437L47.1261 4.45644L46.9981 4.40839C46.9074 4.37536 46.7234 4.35734 46.4088 4.34533L45.9475 4.33332V6.22521V8.1201L45.8408 8.12911L45.7341 8.13812L45.7875 8.23722C45.8355 8.32731 45.8488 8.33331 45.9875 8.33331H46.1341V6.43842V4.54052L46.5688 4.55854C47.1261 4.58256 47.2167 4.60959 47.2807 4.77175C47.3074 4.84082 47.3367 4.9189 47.3447 4.94593C47.3554 4.98797 47.39 4.99998 47.5074 4.99998H47.654V4.00899V3.018H47.51H47.366L47.3234 3.17115C47.1927 3.6156 46.9447 3.79878 46.4354 3.82281L46.1341 3.83782V3.18617V2.53752H46.6888C47.8247 2.54052 48.1127 2.59758 48.2353 2.83782C48.294 2.95494 48.2993 2.95794 48.4406 2.95794H48.5873V2.3123V1.66665H46.0675H43.5476V1.80179ZM47.4327 2.17716C47.622 2.20419 47.8113 2.29127 47.9473 2.4144C48.03 2.48947 48.0273 2.48947 47.814 2.4144C47.6567 2.35734 47.558 2.34833 46.7954 2.33332L45.9475 2.3183V3.07506V3.82881H45.8675H45.7875V2.98797V2.14713H46.5154C46.9127 2.14713 47.3287 2.16215 47.4327 2.17716Z" fill="#181818"/>
<path d="M62.4478 1.80119C62.4478 1.92672 62.4504 1.9327 62.5337 1.94764C62.8412 1.99845 62.9872 2.03431 63.0732 2.08512C63.1774 2.1449 63.2425 2.25249 63.1565 2.2226C63.1175 2.21065 62.8178 2.1449 62.7943 2.1449C62.7891 2.1449 62.7865 2.18973 62.7865 2.24651V2.34514L62.9507 2.36606C63.0393 2.37802 63.1435 2.39595 63.1852 2.40492L63.2556 2.41986V2.98473V3.54662L63.094 3.70801C63.0028 3.79767 62.896 3.90527 62.8569 3.94412L62.7813 4.01286L62.909 4.11747C62.9767 4.17425 63.0836 4.27288 63.1461 4.33864L63.2556 4.4552V5.10973C63.2556 5.88681 63.2451 5.9406 63.0575 6.03326C62.9793 6.0751 62.8569 6.102 62.6927 6.11096L62.4478 6.1289V6.25741V6.38892H63.9539C65.8015 6.38892 66.1897 6.35604 66.8125 6.14384C67.7037 5.84198 68.2875 5.2771 68.4542 4.55084C68.4777 4.44623 68.4959 4.24598 68.4959 4.07264C68.4985 3.50478 68.3734 3.1252 68.0555 2.73966C67.5422 2.11202 66.7526 1.76831 65.6608 1.69658C65.421 1.68164 64.5976 1.6667 63.8367 1.6667H62.4478V1.80119ZM65.4705 1.99546C65.593 2.01339 65.7728 2.05822 65.8744 2.09409C66.0464 2.15386 66.3852 2.384 66.4634 2.49159C66.4816 2.51849 66.4529 2.50653 66.3982 2.46469C66.1376 2.25847 65.7989 2.17478 65.2282 2.17478H64.793L64.7982 4.05769C64.8034 5.304 64.7982 5.93762 64.78 5.93164C64.767 5.92566 64.7279 5.87784 64.6966 5.82105L64.6367 5.72243V3.86044V1.99845L64.8008 1.98649C65.1448 1.96557 65.2569 1.96557 65.4705 1.99546ZM65.9005 2.41388C66.135 2.45573 66.3878 2.55734 66.5311 2.66195C66.6275 2.73667 66.677 2.80541 66.7526 2.9668C66.8855 3.25372 66.935 3.4988 66.9507 3.94412C66.9715 4.5867 66.8777 5.0649 66.6588 5.43252C66.393 5.87186 66.0178 6.06314 65.3924 6.07211C65.2126 6.07211 65.0458 6.06613 65.0223 6.05418C64.978 6.03326 64.9754 5.91669 64.9754 4.20713V2.384H65.3611C65.5722 2.384 65.8145 2.39595 65.9005 2.41388Z" fill="#181818"/>
<path d="M48.7244 1.97155C48.7181 1.98318 48.7134 2.29713 48.7134 2.66922V3.33977H48.6504H48.5874L48.6142 3.47543C48.6394 3.61108 48.6425 3.61108 48.7402 3.61108H48.8394V2.86302C48.8394 2.45605 48.8347 2.08008 48.83 2.02969C48.8221 1.96767 48.8079 1.94442 48.778 1.94442C48.7544 1.94442 48.7292 1.95605 48.7244 1.97155Z" fill="#121212"/>
<path d="M68.4051 3.06173C68.4051 3.07707 68.4375 3.1292 68.4754 3.18134C68.7403 3.54017 68.8647 4.18729 68.7755 4.73321C68.5943 5.8005 67.6101 6.52122 66.0824 6.69604C65.9201 6.71751 65.1522 6.72977 64.2518 6.72977H62.6997V6.83712V6.94446H64.3897C66.177 6.94446 66.3987 6.93219 66.9152 6.80338C67.6642 6.61323 68.1833 6.31574 68.5619 5.8557C68.8485 5.50914 68.9999 5.06137 68.9999 4.56146C68.9999 4.09529 68.8918 3.70272 68.6673 3.37149C68.5403 3.18134 68.4051 3.02186 68.4051 3.06173Z" fill="#121212"/>
<path d="M47.8967 4.34494V5.07877H47.7268C47.5678 5.07877 47.5623 5.08125 47.5952 5.15837C47.6555 5.27777 47.6555 5.27777 48.0118 5.27777H48.3351V4.49916C48.3351 4.07379 48.3187 3.69817 48.3022 3.66583C48.2748 3.62354 48.2255 3.61111 48.083 3.61111H47.8967V4.34494Z" fill="#121212"/>
<path d="M22.1265 4.30556V4.72223H23.3865H24.6466V4.30556V3.8889H23.3865H22.1265V4.30556Z" fill="#FF1212"/>
<path d="M62.258 4.32777C62.1404 4.43088 62.0388 4.54025 62.0281 4.56837C62.02 4.59649 61.9853 4.71835 61.9532 4.84021C61.7794 5.50262 61.2768 6.08692 60.6057 6.40563C60.0816 6.65559 59.5683 6.74933 58.8651 6.72121C57.9534 6.68684 57.3438 6.46187 56.7128 5.92444C56.6272 5.84945 56.6272 5.8557 56.7395 5.99318C56.9962 6.31189 57.5229 6.6431 58.0068 6.78995C58.4346 6.92118 58.7688 6.95868 59.3731 6.93993C59.8463 6.92743 59.9773 6.91181 60.2153 6.84619C61.0816 6.6056 61.7152 6.10879 62.0174 5.42763C62.0575 5.34014 62.1216 5.14954 62.1617 5.00893C62.2313 4.75584 62.2393 4.74334 62.4211 4.58086C62.5254 4.48713 62.6323 4.39339 62.6617 4.36839C62.7125 4.32465 62.7125 4.32465 62.6617 4.2809C62.4746 4.12155 62.4879 4.12155 62.258 4.32777Z" fill="#121212"/>
</svg>
