<svg width="63" height="36" viewBox="0 0 63 36" fill="none" xmlns="http://www.w3.org/2000/svg">
<path d="M42.9585 0.851765C39.0661 1.16764 35.6772 2.64289 32.8265 5.2671L32.6251 5.45107L34.5175 7.34286L36.4098 9.23118L36.5314 9.13052C37.6564 8.169 38.448 7.64485 39.4932 7.17278C40.514 6.71111 41.5835 6.40912 42.7849 6.24597C43.3474 6.16961 44.8578 6.15572 45.4065 6.22514C47.9898 6.54102 50.2086 7.57543 51.976 9.27978C54.7815 11.9873 55.8093 15.8438 54.726 19.5926C53.6079 23.4561 50.4621 26.5176 46.6773 27.4236C45.896 27.6111 44.6738 27.743 43.3578 27.7777C41.4203 27.8332 39.1981 27.1494 36.9689 25.8165C36.2015 25.3583 35.4689 24.8411 32.1077 22.3765C29.4549 20.4327 20.743 14.0006 18.6874 12.4698L18.2708 12.1574L18.2604 15.2953C18.2534 17.7737 18.2638 18.4402 18.2951 18.4714C18.3992 18.5686 33.264 28.9961 33.5487 29.1696C36.6529 31.0579 39.7849 32.1791 42.6981 32.4429C43.1634 32.4846 44.6148 32.4638 45.4238 32.4013C49.5836 32.0923 53.3787 30.2977 56.2225 27.3021C60.6774 22.6056 61.7608 15.7362 58.9656 9.92889C57.7677 7.43658 55.8406 5.22197 53.4968 3.64259C51.2989 2.1604 48.785 1.24054 46.0662 0.917717C45.3752 0.837881 43.6182 0.799698 42.9585 0.851765Z" fill="#FF2020"/>
<path d="M15.5347 1.47996C11.3298 1.69517 7.44434 3.44464 4.53806 6.42638C3.30194 7.69336 2.45123 8.89439 1.67692 10.4668C0.784552 12.2753 0.288019 14.0838 0.124823 16.1387C0.0727393 16.7983 0.100517 18.3742 0.176907 19.0059C0.52066 21.8419 1.55192 24.4001 3.2568 26.646C7.21517 31.8493 14.0138 34.1993 20.4722 32.5921C23.1841 31.9152 25.6563 30.5823 27.7084 28.6836L27.9445 28.4649L26.0522 26.5731L24.1598 24.6848L23.9931 24.8306C22.3125 26.3023 20.5313 27.1771 18.4271 27.5589C16.5937 27.8921 14.6805 27.7637 12.9166 27.1944C11.1458 26.6217 9.65963 25.7018 8.37143 24.3828C6.68738 22.6541 5.68738 20.502 5.4721 18.1381C5.41654 17.5203 5.45126 16.3921 5.54154 15.7951C5.8089 14.0421 6.41655 12.4975 7.41309 11.0396C9.05894 8.63405 11.5485 6.94706 14.2604 6.40555C14.8472 6.28753 15.2222 6.24241 15.9618 6.19728C16.2569 6.17993 16.6875 6.14869 16.9166 6.12786C17.875 6.04108 19.3021 6.25282 20.5452 6.65895C21.7396 7.05119 23.0313 7.68642 24.2257 8.46743C25.2119 9.11307 31.8717 13.997 41.094 20.8387C41.7676 21.3386 42.3266 21.7481 42.3336 21.7481C42.344 21.7481 42.3474 20.3319 42.344 18.6033L42.3336 15.4549L34.7918 10.1579C30.6459 7.24558 27.1216 4.78452 26.9619 4.68732C23.875 2.8476 20.9618 1.78542 18.191 1.49384C17.6805 1.4383 16.434 1.43136 15.5347 1.47996Z" fill="#FF2020"/>
<path d="M16.7429 7.20392C16.6283 7.22128 16.2707 7.24905 15.9443 7.26988C13.8748 7.40178 12.0137 8.12031 10.3783 9.42201C6.76713 12.2996 5.46503 17.2287 7.26366 21.2275C7.48936 21.7308 8.02756 22.6784 8.06575 22.6402C8.0727 22.6333 8.04839 22.5361 8.0102 22.4216C7.72894 21.6128 7.52408 20.3007 7.52408 19.353C7.52755 16.892 8.40256 14.4587 10.0172 12.4107C10.3505 11.9872 11.3644 10.9736 11.8019 10.6265C12.854 9.78648 14.1978 9.08183 15.4235 8.71736C16.2742 8.46743 17.0033 8.34594 18.045 8.27999C18.361 8.25916 18.7915 8.22792 18.9999 8.21056C19.9929 8.12726 21.5416 8.3633 22.8194 8.80066C22.9895 8.8562 23.1145 8.89092 23.0971 8.87356C23.0763 8.8562 22.8055 8.70694 22.4895 8.5438C21.2117 7.88428 20.0832 7.49203 18.8263 7.26988C18.3645 7.19004 17.1249 7.14839 16.7429 7.20392Z" fill="#DFDFDF"/>
<path d="M43.594 7.23853C41.8475 7.37391 40.2051 7.90847 38.7919 8.79709C38.3787 9.05743 37.7606 9.51909 37.4447 9.81067L37.2051 10.0259L37.844 10.6646C38.1912 11.0117 38.4863 11.2998 38.4968 11.2998C38.5072 11.2998 38.6773 11.1575 38.8787 10.9839C40.5662 9.52256 42.5454 8.64436 44.8683 8.32848C45.4274 8.25211 46.976 8.2417 47.5073 8.31112C48.3059 8.41179 49.292 8.62006 49.7434 8.7832C49.8267 8.81097 49.9031 8.8318 49.9101 8.82139C49.9344 8.80056 49.4413 8.52287 48.9205 8.26947C47.8649 7.75226 46.7607 7.42597 45.6045 7.2906C45.042 7.22812 44.0732 7.20035 43.594 7.23853Z" fill="#DFDFDF"/>
<path d="M60.4275 10.9735C60.6151 11.456 60.9067 12.3793 61.0456 12.9312C61.9553 16.6072 61.5526 20.4602 59.9032 23.8828C58.7956 26.1841 57.1011 28.2599 55.0074 29.8879C53.5768 30.9987 51.8129 31.9463 50.0802 32.5399C48.042 33.2376 46.2469 33.5118 43.7121 33.5153C41.8545 33.5153 39.5871 33.0293 37.3614 32.1511C37.1461 32.0643 36.969 32.0018 36.969 32.0088C36.969 32.0296 38.1461 32.6162 38.6044 32.821C40.5211 33.6888 42.4135 34.2373 44.3823 34.4941C45.0975 34.5879 47.3198 34.5358 48.3927 34.3969C54.6254 33.6055 59.8581 29.3846 61.7956 23.5877C62.5942 21.1961 62.7956 18.6378 62.3824 16.1594C62.0873 14.3995 61.431 12.5633 60.5491 11.0394C60.3025 10.6194 60.2817 10.609 60.4275 10.9735Z" fill="#DFDFDF"/>
<path d="M43.3579 19.7765C43.3579 21.4809 43.3718 22.8937 43.3857 22.9145C43.41 22.9527 44.1704 23.5289 44.3406 23.6365L44.4343 23.699V20.5402V17.3849L43.9308 17.0308C43.6496 16.8399 43.41 16.6803 43.3926 16.6803C43.3718 16.6803 43.3579 17.8431 43.3579 19.7765Z" fill="#8E8E8E"/>
<path d="M28.6319 29.3363C28.5867 29.3883 28.3471 29.607 28.0971 29.8257C24.8263 32.7102 20.611 34.2341 16.1699 34.1299C14.1074 34.0813 12.4199 33.7516 10.2498 32.981C10.0692 32.915 10.5241 33.1684 11.1178 33.4635C12.9685 34.3764 14.7915 34.8867 17.0207 35.1158C17.6595 35.1817 19.3991 35.1713 20.111 35.0984C23.8367 34.7131 27.1284 33.2344 29.8333 30.7282L30.0416 30.5338L29.3992 29.8916C29.0451 29.5376 28.7499 29.246 28.736 29.246C28.7256 29.246 28.6805 29.2877 28.6319 29.3363Z" fill="#DFDFDF"/>
</svg>
