<svg width="426" height="61" viewBox="0 0 426 61" fill="none" xmlns="http://www.w3.org/2000/svg">
<g filter="url(#filter0_d_24_619)">
<path d="M231.907 6.02691C227.504 6.38426 223.67 8.05319 220.445 11.0219L220.217 11.23L222.358 13.3702L224.499 15.5064L224.636 15.3925C225.909 14.3048 226.805 13.7118 227.987 13.1778C229.142 12.6555 230.352 12.3139 231.711 12.1293C232.347 12.0429 234.056 12.0272 234.677 12.1057C237.599 12.4631 240.109 13.6333 242.109 15.5614C245.283 18.6244 246.445 22.9871 245.22 27.2282C243.955 31.5988 240.396 35.0623 236.114 36.0872C235.231 36.2993 233.848 36.4485 232.359 36.4878C230.167 36.5506 227.653 35.777 225.131 34.2691C224.263 33.7507 223.434 33.1656 219.632 30.3775C216.631 28.1785 206.775 20.902 204.45 19.1702L203.978 18.8168L203.967 22.3667C203.959 25.1705 203.971 25.9245 204.006 25.9598C204.124 26.0698 220.94 37.8661 221.262 38.0625C224.774 40.1987 228.317 41.4671 231.613 41.7655C232.139 41.8126 233.781 41.7891 234.696 41.7184C239.402 41.3689 243.696 39.3387 246.913 35.9498C251.952 30.6367 253.178 22.8654 250.016 16.2957C248.661 13.4762 246.481 10.9709 243.829 9.18413C241.343 7.50735 238.499 6.46672 235.423 6.10152C234.641 6.01121 232.654 5.96801 231.907 6.02691Z" fill="#E3071D"/>
<path d="M200.883 6.73782C196.126 6.98129 191.731 8.96044 188.443 12.3336C187.044 13.767 186.082 15.1257 185.206 16.9045C184.196 18.9504 183.635 20.9964 183.45 23.3211C183.391 24.0672 183.423 25.85 183.509 26.5647C183.898 29.7729 185.065 32.6671 186.993 35.2078C191.471 41.0942 199.163 43.7527 206.469 41.9345C209.537 41.1688 212.333 39.6609 214.655 37.5128L214.922 37.2655L212.781 35.1253L210.64 32.9891L210.452 33.154C208.551 34.819 206.536 35.8086 204.155 36.2405C202.081 36.6175 199.917 36.4722 197.921 35.8282C195.918 35.1803 194.237 34.1396 192.779 32.6474C190.874 30.6918 189.743 28.2572 189.499 25.583C189.437 24.884 189.476 23.6077 189.578 22.9323C189.88 20.9492 190.568 19.2018 191.695 17.5525C193.557 14.8311 196.374 12.9227 199.441 12.3101C200.105 12.1766 200.53 12.1255 201.366 12.0745C201.7 12.0548 202.187 12.0195 202.446 11.9959C203.531 11.8978 205.145 12.1373 206.551 12.5967C207.903 13.0405 209.364 13.7591 210.715 14.6426C211.831 15.373 219.365 20.8982 229.798 28.6381C230.56 29.2036 231.192 29.6669 231.2 29.6669C231.212 29.6669 231.216 28.0648 231.212 26.1092L231.2 22.5475L222.668 16.555C217.978 13.2604 213.991 10.4762 213.81 10.3663C210.318 8.28502 207.023 7.08339 203.888 6.75353C203.311 6.6907 201.9 6.68285 200.883 6.73782Z" fill="#171717"/>
<path d="M202.25 13.2131C202.12 13.2327 201.716 13.2642 201.347 13.2877C199.005 13.4369 196.9 14.2498 195.05 15.7224C190.965 18.9778 189.492 24.554 191.526 29.0777C191.782 29.6471 192.39 30.7192 192.434 30.676C192.442 30.6681 192.414 30.5582 192.371 30.4286C192.053 29.5136 191.821 28.0293 191.821 26.9572C191.825 24.1731 192.815 21.4203 194.641 19.1034C195.018 18.6244 196.165 17.4777 196.66 17.085C197.851 16.1347 199.371 15.3376 200.757 14.9252C201.72 14.6425 202.545 14.5051 203.723 14.4304C204.081 14.4069 204.568 14.3715 204.803 14.3519C205.927 14.2577 207.679 14.5247 209.124 15.0195C209.317 15.0823 209.458 15.1216 209.438 15.1019C209.415 15.0823 209.109 14.9135 208.751 14.7289C207.306 13.9828 206.029 13.539 204.607 13.2877C204.084 13.1974 202.682 13.1503 202.25 13.2131Z" fill="#E3071D"/>
<path d="M232.626 13.2525C230.65 13.4056 228.792 14.0104 227.194 15.0156C226.726 15.3102 226.027 15.8324 225.669 16.1623L225.398 16.4058L226.121 17.1283C226.514 17.521 226.848 17.8469 226.86 17.8469C226.871 17.8469 227.064 17.6859 227.292 17.4896C229.201 15.8364 231.44 14.8429 234.068 14.4855C234.7 14.3991 236.452 14.3873 237.053 14.4659C237.957 14.5798 239.072 14.8154 239.583 14.9999C239.677 15.0313 239.764 15.0549 239.771 15.0431C239.799 15.0196 239.241 14.7054 238.652 14.4188C237.458 13.8336 236.209 13.4645 234.901 13.3114C234.264 13.2407 233.168 13.2093 232.626 13.2525Z" fill="#141414"/>
<path d="M251.669 17.4777C251.882 18.0236 252.211 19.0681 252.369 19.6925C253.398 23.8511 252.942 28.2099 251.076 32.0818C249.823 34.6853 247.906 37.0336 245.538 38.8753C243.919 40.1319 241.924 41.204 239.964 41.8755C237.658 42.6648 235.627 42.975 232.759 42.9789C230.658 42.9789 228.093 42.4292 225.575 41.4357C225.331 41.3375 225.131 41.2668 225.131 41.2747C225.131 41.2982 226.463 41.9619 226.981 42.1935C229.15 43.1753 231.29 43.7957 233.518 44.0863C234.327 44.1923 236.841 44.1334 238.055 43.9764C245.106 43.081 251.025 38.3059 253.217 31.748C254.121 29.0424 254.348 26.1483 253.881 23.3445C253.547 21.3536 252.805 19.2762 251.807 17.5523C251.528 17.0772 251.504 17.0654 251.669 17.4777Z" fill="#141414"/>
<path d="M232.359 27.4364C232.359 29.3645 232.375 30.9627 232.391 30.9863C232.418 31.0295 233.278 31.6814 233.471 31.8031L233.577 31.8738V28.3003V24.7308L233.007 24.3302C232.689 24.1142 232.418 23.9336 232.398 23.9336C232.375 23.9336 232.359 25.2491 232.359 27.4364Z" fill="#E3071D"/>
<path d="M215.7 38.2509C215.649 38.3098 215.378 38.5572 215.095 38.8046C211.395 42.0679 206.626 43.7918 201.602 43.674C199.269 43.619 197.359 43.2459 194.904 42.3742C194.7 42.2995 195.215 42.5862 195.886 42.92C197.98 43.9528 200.042 44.53 202.564 44.7892C203.287 44.8638 205.255 44.852 206.06 44.7696C210.275 44.3337 213.999 42.6608 217.059 39.8256L217.295 39.6057L216.568 38.8792C216.167 38.4787 215.833 38.1488 215.818 38.1488C215.806 38.1488 215.755 38.1959 215.7 38.2509Z" fill="#E3071D"/>
<path d="M311.093 10.5822C304.61 11.2589 299.98 13.6116 297.331 17.5757C296.421 18.9293 295.723 20.3312 295.528 21.2014C295.43 21.6687 294.293 22.7 292.863 23.6346C292.489 23.8763 292.505 23.8924 293.627 24.6498C294.244 25.0688 294.878 25.5683 295.056 25.7617C295.251 25.9873 295.268 26.0517 295.105 25.9228C294.585 25.5361 294.634 25.9712 295.17 26.4546C295.544 26.7769 295.869 27.3247 296.177 28.1466C296.795 29.758 297.591 30.9021 299.135 32.3523C299.85 33.013 300.467 33.6737 300.532 33.8187C300.694 34.2699 303.213 36.1553 304.545 36.8321C306.121 37.6378 308.217 38.3629 310.199 38.798C312.507 39.2814 318.063 39.4103 320.549 39.0236C323.49 38.5724 326.529 37.4928 328.69 36.1231C330.054 35.2529 331.76 33.577 332.67 32.2073C333.369 31.1599 334.279 28.9362 334.279 28.2916C334.279 28.0821 334.539 27.8404 335.595 27.0669C335.839 26.8735 335.936 27.0025 336.375 28.1788C337.61 31.3372 340.404 33.8671 344.434 35.4463C350.234 37.7184 358.147 37.7184 363.655 35.4624C368.026 33.6737 370.739 30.9988 371.909 27.357C372.429 25.7294 372.494 25.6489 374.005 24.5531C374.622 24.1019 375.175 23.7152 375.224 23.6829C375.256 23.6507 375.094 23.4573 374.866 23.264C374.639 23.0706 374.346 22.6194 374.249 22.2649C373.94 21.2658 373.29 20.0895 372.543 19.1226C371.795 18.188 370.934 17.3017 370.772 17.334C370.707 17.3501 370.366 17.0117 369.992 16.5927C366.255 12.258 359.333 9.9537 351.973 10.5499C349.276 10.7755 347.781 11.0656 345.75 11.7263C342.793 12.7092 340.144 14.3367 338.568 16.1576C337.512 17.3984 336.294 19.4449 335.887 20.7179C335.66 21.4109 335.384 21.9104 335.091 22.136C334.458 22.6355 334.116 22.7644 334.116 22.4583C334.116 21.9587 332.8 19.6383 331.923 18.5909C330.834 17.3179 330.412 17.1406 331.338 18.3653C332.004 19.2354 332.865 20.9435 333.044 21.7493L333.158 22.2004L332.67 21.8459C332.329 21.6042 332.15 21.2981 332.085 20.8469C331.76 18.9776 329.713 16.1093 327.503 14.4495C325.31 12.8059 321.784 11.3556 318.681 10.84C316.812 10.5177 312.929 10.3888 311.093 10.5822ZM316.162 12.4353C317.397 12.7576 318.388 13.2571 319.136 13.9178L319.737 14.4495L319.168 14.1434C318.096 13.5472 316.731 13.2571 315.106 13.2571C310.476 13.2893 307.681 15.5775 306.462 20.3312C306.137 21.5881 306.089 22.1843 306.089 24.9237C306.089 28.5011 306.365 30.0158 307.372 32.0945L307.925 33.2225L307.372 32.5779C305.585 30.467 304.659 26.3096 305.049 21.9748C305.439 17.3823 307.08 14.4173 309.939 13.0798C311.792 12.2097 314.278 11.9519 316.162 12.4353ZM356.36 12.4353C357.562 12.7253 358.618 13.2571 359.544 14.0467L360.194 14.6107L359.447 14.2078C358.196 13.531 357.075 13.2732 355.401 13.2571C351.664 13.241 349.048 14.7396 347.618 17.7368C346.822 19.3805 346.497 20.6374 346.27 23.0384C345.945 26.3579 346.465 29.8385 347.667 32.2396L348.22 33.3837L347.667 32.7391C346.189 30.9988 345.36 28.3238 345.214 24.7948C344.889 16.7055 348.057 12.258 354.183 12.2097C354.816 12.2097 355.791 12.3064 356.36 12.4353ZM319.623 15.0941C320.777 15.6098 320.809 15.6581 321.378 16.77C322.808 19.6705 323.133 25.1816 322.077 28.9523C321.183 32.1912 319.071 34.3988 316.162 35.1562C314.294 35.6235 311.304 35.3496 309.858 34.56C307.908 33.4965 306.706 28.1949 307.307 23.3768C307.811 19.4288 309.468 16.5283 311.938 15.3358C313.384 14.6268 314.326 14.4495 316.487 14.4979C318.307 14.5462 318.518 14.5785 319.623 15.0941ZM358.829 14.7074C360.292 15.1263 361.039 15.6581 361.51 16.5766C363.086 19.6705 363.33 26.1967 361.998 29.8547C360.909 32.8035 358.781 34.6889 355.921 35.2529C353.988 35.6235 350.884 35.1723 349.617 34.3505C349.146 34.0443 348.366 32.4329 347.943 30.886C347.472 29.1618 347.261 26.4385 347.44 24.2469C347.878 18.9293 350.023 15.7064 353.793 14.7074C354.995 14.3851 357.708 14.3851 358.829 14.7074ZM371.779 18.7037C372.559 19.8639 373.274 21.427 373.274 21.9748C373.274 22.5066 372.331 21.3786 372.218 20.7179C372.153 20.3795 371.844 19.5738 371.519 18.9293C371.194 18.2847 370.902 17.7046 370.869 17.624C370.837 17.5596 370.853 17.5112 370.885 17.5112C370.934 17.5112 371.34 18.0591 371.779 18.7037ZM334.896 25.4716C335.043 25.6489 335.091 25.7294 334.994 25.6811C334.88 25.6166 334.441 25.8584 333.986 26.2129C333.369 26.7124 333.158 26.9863 333.06 27.4537C332.589 29.9997 330.363 33.0775 327.747 34.7856C324.465 36.9449 321.021 37.9278 316.244 38.089C310.427 38.2824 305.764 37.2027 302.254 34.8823C300.841 33.9476 300.028 33.2386 301.247 33.996C303.132 35.1723 306.024 36.2197 308.77 36.7193C311.288 37.1705 316.536 37.2188 318.843 36.7837C323.084 36.0103 326.691 34.2377 329.031 31.7884C330.396 30.3864 331.241 28.9362 331.842 27.0669C332.215 25.8422 332.345 25.6328 332.979 25.1654C333.694 24.6337 333.71 24.6337 334.165 24.8915C334.425 25.0365 334.75 25.3105 334.896 25.4716Z" fill="#181818"/>
<path d="M10.0389 11.3031C10.0064 11.4159 9.99013 13.0595 10.0064 14.961L10.0551 18.4256L10.9488 18.4739L11.8424 18.5222L12.2486 17.7488C12.8985 16.5241 14.2146 15.235 15.3194 14.7354C16.3756 14.2681 18.3578 14.0103 20.9087 13.9942H22.3223V14.4776C22.3223 14.7354 22.3061 14.961 22.2898 14.961C22.2573 14.961 21.2174 15.0416 19.9664 15.106C17.3992 15.2833 16.2943 15.5895 15.1732 16.4757C14.4746 17.0236 13.061 18.8767 13.061 19.2635C13.061 19.3924 12.866 19.473 12.5735 19.473C12.1186 19.473 12.0861 19.5213 12.0861 20.037V20.601H13.1097H14.1171L14.5233 19.8436C15.1407 18.6995 16.3756 17.4426 17.3667 16.9914C18.2928 16.5402 19.8851 16.2663 21.3962 16.2501H22.3223V18.8123V21.3583L21.0712 22.164C20.3725 22.6152 19.5277 23.1309 19.1865 23.3404L18.5853 23.6949L19.9664 24.5167C20.73 24.9679 21.5911 25.5319 21.8674 25.7897L22.4035 26.257L21.7374 25.9025C21.3149 25.6608 20.9737 25.5802 20.7625 25.6608C20.5025 25.7575 20.6163 25.8703 21.3962 26.2893L22.3223 26.8049V31.6714V36.554H26.628H30.9337V31.333V26.0959L31.4861 25.6769C31.7786 25.4513 32.6235 24.9195 33.3546 24.4845L34.6707 23.6949L33.9396 23.2759L33.2084 22.8408V19.5535V16.2501H35.2069C37.6116 16.2501 38.9114 16.4274 39.9838 16.8947C40.6337 17.1687 40.8612 17.362 41.1049 17.8777L41.3811 18.5222L42.291 18.4739L43.2009 18.4256V14.7999V11.1742L26.6605 11.1259C13.3534 11.0936 10.1039 11.1259 10.0389 11.3031ZM35.3856 14.1553C37.1079 14.3165 38.4727 14.8321 39.4639 15.6862L39.9513 16.1051L39.2201 15.7828C38.164 15.3316 36.8479 15.1544 34.2645 15.0899L31.9898 15.0416L31.9411 18.4578C31.9248 20.3431 31.8598 21.8901 31.8111 21.8901C31.7786 21.8901 31.5511 21.7773 31.3399 21.6323L30.9337 21.3744V17.6843V13.9942H32.3635C33.1434 13.9942 34.5082 14.0747 35.3856 14.1553Z" fill="#E3071D"/>
<path d="M63.4619 11.851L63.5107 12.6245L64.3393 12.7212C65.7204 12.8985 67.3777 13.5914 67.7351 14.1554C67.8651 14.3649 67.8326 14.3649 67.004 14.0748C66.6303 13.9459 66.0941 13.8331 65.8341 13.8331C65.4117 13.8331 65.363 13.8814 65.4117 14.2682C65.4604 14.6871 65.5417 14.7194 66.7928 14.9611C67.5239 15.1061 68.1901 15.2672 68.2551 15.3478C68.4663 15.5412 68.4988 30.1728 68.3038 31.4458C68.1089 32.7027 67.8489 33.299 67.199 33.8952C66.744 34.3303 65.2005 34.8459 63.8844 35.0232L63.1045 35.1199V35.845V36.554H71.2285H79.3524V35.845V35.136L78.5075 34.9426C76.5415 34.5397 76.4603 34.4914 76.2491 33.8468C76.1028 33.4279 76.0216 31.0269 75.9891 25.9187C75.9403 21.8902 75.9566 18.619 75.9891 18.6673C76.0378 18.7157 77.6139 21.9385 79.4824 25.8381C81.3509 29.7377 83.2357 33.6374 83.6581 34.5075L84.438 36.0867L86.6965 36.0384L88.9549 35.99L93.8943 25.4353C96.6077 19.6342 98.8987 14.7677 98.9961 14.6388C99.1099 14.4615 99.1586 14.8322 99.1586 15.9279V17.4588L94.5605 27.2884L89.9623 37.118L87.9963 37.1664L86.0303 37.2147L86.2903 37.7787L86.5665 38.3427L88.8412 38.2943L91.1322 38.246L94.4955 31.0752C96.3477 27.1272 98.1513 23.2437 98.5087 22.4541L99.1749 21.0039V30.205V39.4223L100.036 39.8413C100.491 40.0669 101.173 40.5181 101.531 40.8404C101.888 41.1465 102.002 41.2916 101.775 41.1627C101.255 40.8243 101.125 40.8404 101.125 41.211C101.125 41.4205 101.45 41.6622 102.197 42.0328C103.204 42.5162 103.302 42.6129 103.757 43.5798L104.244 44.6111H105.203H106.161V29.4638C106.161 18.9252 106.21 14.2198 106.34 13.9459C106.665 13.2207 107.234 13.0274 110.353 12.6084C110.857 12.5278 110.873 12.4956 110.873 11.8027V11.0937L103.123 11.1259L95.3729 11.1743L91.7983 18.8607C89.8323 23.0987 88.1913 26.5633 88.1425 26.5633C88.0938 26.5633 86.534 23.5499 84.6655 19.8759C82.5045 15.5895 81.2047 13.1885 81.0584 13.1885C80.9285 13.1885 80.8147 13.2691 80.8147 13.3497C80.8147 13.4463 82.3908 16.6369 84.3243 20.456C86.5665 24.9196 87.7851 27.4979 87.7201 27.6751C87.6389 27.8363 86.1765 25.0969 83.3657 19.5536L79.1087 11.1743L71.2609 11.1259L63.4132 11.0937L63.4619 11.851ZM74.803 24.1461C74.8842 31.2364 74.933 32.5577 75.1604 33.2184L75.4367 34.008L75.0955 33.7018C74.6405 33.299 74.2181 32.4288 74.0068 31.4297C73.8931 30.8657 73.8281 27.8685 73.8281 22.4058L73.8444 14.2359L74.2831 15.0416L74.7218 15.8474L74.803 24.1461Z" fill="#E3071D"/>
<path d="M113.636 11.8188C113.636 12.6245 113.473 12.5439 115.585 12.8662C116.999 13.0918 117.974 13.4785 118.429 13.9942L118.754 14.3648L118.413 14.252C118.218 14.1875 117.551 14.0425 116.902 13.9297L115.748 13.7041V14.2359V14.7676L117.064 14.961C117.795 15.0577 118.478 15.1866 118.608 15.235C118.786 15.2994 118.835 15.8795 118.835 18.2483V21.1811L118.315 21.6645C117.551 22.3735 116.56 23.0987 115.943 23.4048L115.39 23.6788L115.992 23.9849C116.642 24.3072 118.299 25.548 118.461 25.8219C118.526 25.9186 118.445 25.9025 118.299 25.7736C118.153 25.6608 117.909 25.6125 117.746 25.6608C117.519 25.7575 117.6 25.8542 118.153 26.1765L118.835 26.5793V29.8827C118.835 33.7823 118.738 34.1368 117.665 34.6203C117.226 34.8136 116.365 34.9587 115.293 35.0392L113.636 35.152V35.8449V36.554H123.059H132.483V35.8449V35.152L131.265 35.0392C130.582 34.9748 129.932 34.8942 129.802 34.8297C129.591 34.7653 129.559 34.2013 129.559 31.4941V28.2552L130.501 27.5139C131.005 27.095 131.768 26.5471 132.175 26.2893L132.938 25.8219L132.142 25.3707C131.216 24.8551 131.183 24.8712 129.526 26.1926L128.421 27.0627V30.7851V34.5236L127.934 34.0563L127.446 33.589V29.786V25.9831L128.145 25.4191C128.957 24.7423 130.192 23.9044 130.517 23.7916C130.664 23.7593 130.534 23.5982 130.16 23.3726L129.559 23.0342V19.8114C129.559 17.6521 129.624 16.4435 129.754 16.1696C130.046 15.5411 131.021 15.1222 132.63 14.9449C133.393 14.8643 134.189 14.7999 134.401 14.7999C134.742 14.7999 134.774 14.7354 134.726 14.0264C134.677 13.3013 134.661 13.269 134.157 13.2207C133.783 13.1885 133.621 13.2368 133.621 13.3979C133.621 13.5752 133.247 13.6558 132.093 13.7363C130.404 13.8491 129.25 14.1714 128.811 14.671C128.535 14.961 128.503 15.3639 128.454 18.5222C128.421 20.4559 128.34 22.0512 128.275 22.0512C128.21 22.0512 127.999 21.8901 127.804 21.6806C127.463 21.3261 127.446 21.1811 127.446 17.7165C127.446 15.4444 127.511 14.0103 127.625 13.8008C127.901 13.3013 129.071 12.8662 130.485 12.7695C132.516 12.6245 132.483 12.6406 132.483 11.8188V11.0936H123.059H113.636V11.8188Z" fill="#E3071D"/>
<path d="M137.292 11.6093C137.098 12.7373 136.383 18.3128 136.383 18.635C136.383 18.9573 136.464 18.9895 137.26 18.9895H138.154L139.177 17.8616C139.746 17.2492 140.493 16.5241 140.851 16.2663C142.427 15.1383 144.978 14.816 152.062 14.816H156.124L155.474 15.3639L154.824 15.9279H150.6C146.164 15.9279 145.27 16.0084 143.369 16.5724C142.264 16.8947 142.118 17.0075 140.705 18.4417C139.762 19.3763 139.08 19.9564 138.869 19.9564C138.609 19.9564 138.511 20.0853 138.462 20.5204L138.397 21.0844H139.372H140.347L141.891 19.5697C143.304 18.2 143.564 18.0227 144.523 17.7326C146.148 17.2331 147.821 17.0559 150.795 17.0559H153.475L150.924 19.1668C149.527 20.327 148.081 21.4067 147.691 21.5678C147.317 21.7451 145.628 22.2768 143.938 22.7764C142.248 23.2598 140.851 23.6949 140.818 23.711C140.802 23.7432 141.224 24.0977 141.793 24.5006C142.346 24.9034 142.979 25.4352 143.19 25.6608L143.597 26.0798L142.622 27.095C134.189 35.716 134.433 35.4421 134.433 36.0061V36.554H150.518H166.587L166.685 36.0222C166.782 35.4099 167.741 28.2874 167.741 28.1263C167.741 28.0618 167.351 28.0135 166.88 28.0135C166.019 28.0135 166.003 28.0135 165.06 29.077C164.54 29.6571 163.582 30.5917 162.932 31.1557C161.161 32.6382 160.836 32.7188 155.474 32.7994L151.087 32.8477L153.605 30.4306C156.628 27.5462 156.27 27.7073 162.753 26.0637C163.078 25.9831 163.354 25.8542 163.354 25.7897C163.354 25.7253 163.062 25.4674 162.704 25.2257L162.071 24.7745L160.397 25.1935C158.399 25.7091 155.815 26.5148 155.181 26.8371C154.938 26.9499 153.362 28.3519 151.688 29.9472L148.65 32.8477H147.594H146.538L147.512 31.897C150.697 28.7869 153.752 26.0153 154.304 25.7414C154.921 25.4191 159.308 24.1138 160.478 23.9044C161.112 23.7754 161.193 23.6788 160.917 23.4048C160.803 23.292 162.087 21.8579 165.06 18.8123C169.187 14.5904 169.382 14.3648 169.333 13.833C169.285 13.3335 169.22 13.269 168.797 13.2207C168.359 13.1562 167.952 13.5269 163.842 17.7165L159.357 22.2768L158.805 21.7773L158.269 21.2939L162.672 16.798C166.847 12.5439 167.091 12.27 167.091 11.6898V11.0936H152.224H137.374L137.292 11.6093Z" fill="#E3071D"/>
<path d="M262.138 11.9518C262.138 12.7575 261.976 12.6608 264.007 12.9992C265.355 13.2087 266.314 13.6115 266.769 14.1272L267.094 14.4978L266.769 14.385C266.59 14.3205 265.956 14.1755 265.355 14.0466L264.25 13.8371V14.3689V14.8845L265.68 15.1101L267.094 15.3357V18.3974V21.443L265.664 22.6677L264.234 23.8762L264.689 24.1985C264.933 24.3758 265.583 24.8914 266.119 25.3426L267.094 26.1483L267.175 32.9001L267.256 39.6358L268.069 39.8292C269.06 40.0548 270.311 40.6833 271.075 41.3439L271.643 41.8274L270.831 41.4406C270.392 41.2311 269.807 41.0055 269.564 40.9411C269.125 40.8444 269.109 40.8605 269.157 41.2795C269.206 41.6823 269.32 41.7629 270.181 41.9885C271.724 42.4075 272.846 43.1004 273.414 43.9705C273.918 44.744 273.918 44.744 274.86 44.744H275.786V34.6566V24.5691L278.679 24.6336C281.246 24.6819 281.636 24.7303 282.399 25.0687C282.854 25.262 283.391 25.6004 283.585 25.8099L283.943 26.1967L283.163 25.9388C282.611 25.7616 281.489 25.6649 279.572 25.6004L276.761 25.536V35.6879V45.8559L276.111 45.9042L275.462 45.9526L275.786 46.4843C276.079 46.9678 276.16 47 277.005 47H277.899V36.832V26.6478L280.547 26.7445C283.943 26.8734 284.495 27.0185 284.885 27.8886C285.048 28.2593 285.227 28.6782 285.275 28.8233C285.34 29.0489 285.551 29.1133 286.266 29.1133H287.16V23.7956V18.478H286.283H285.405L285.145 19.2998C284.349 21.6847 282.838 22.6677 279.735 22.7966L277.899 22.8771V19.3804V15.8997H281.278C288.2 15.9158 289.955 16.222 290.702 17.5111C291.06 18.1396 291.092 18.1557 291.953 18.1557H292.847V14.6912V11.2266H277.493H262.138V11.9518ZM285.811 13.966C286.965 14.1111 288.119 14.5784 288.947 15.239C289.451 15.6419 289.435 15.6419 288.135 15.239C287.176 14.9329 286.575 14.8845 281.928 14.804L276.761 14.7234V18.7842V22.8288H276.274H275.786V18.3168V13.8049H280.222C282.643 13.8049 285.178 13.8855 285.811 13.966Z" fill="#181818"/>
<path d="M375.711 11.9518C375.711 12.6286 375.727 12.6608 376.247 12.7414C378.165 13.0153 379.075 13.2087 379.611 13.4827C380.261 13.8049 380.667 14.385 380.131 14.2239C379.887 14.1594 378.018 13.8049 377.872 13.8049C377.84 13.8049 377.823 14.0466 377.823 14.3528V14.8846L378.847 14.9974C379.399 15.0618 380.049 15.1585 380.309 15.2069L380.748 15.2874V18.333V21.3625L379.741 22.2326C379.172 22.7161 378.506 23.2962 378.262 23.5056L377.791 23.8763L378.587 24.4403C379.01 24.7464 379.676 25.2782 380.066 25.6327L380.748 26.2612V29.7902C380.748 33.9798 380.683 34.2699 379.513 34.7694C379.026 34.995 378.262 35.1401 377.238 35.1884L375.711 35.2851V35.978V36.687H385.102C396.622 36.687 399.043 36.5098 402.926 35.3657C408.483 33.7381 412.123 30.6926 413.163 26.7768C413.309 26.2128 413.423 25.1332 413.423 24.1986C413.439 21.1369 412.659 19.0904 410.677 17.0117C407.476 13.6277 402.553 11.7746 395.745 11.3878C394.25 11.3072 389.116 11.2267 384.371 11.2267H375.711V11.9518ZM394.559 12.9992C395.322 13.0959 396.444 13.3376 397.077 13.531C398.15 13.8533 400.262 15.0941 400.749 15.6742C400.863 15.8192 400.684 15.7547 400.343 15.5292C398.718 14.4173 396.606 13.9661 393.048 13.9661H390.334L390.367 24.118C390.399 30.8376 390.367 34.2538 390.253 34.2215C390.172 34.1893 389.928 33.9315 389.733 33.6253L389.359 33.0936V23.0545V13.0153L390.383 12.9509C392.528 12.8381 393.226 12.8381 394.559 12.9992ZM397.24 15.2552C398.702 15.4808 400.278 16.0287 401.172 16.5927C401.773 16.9955 402.082 17.3662 402.553 18.2363C403.381 19.7833 403.69 21.1046 403.788 23.5056C403.918 26.9702 403.333 29.5484 401.968 31.5305C400.311 33.8993 397.971 34.9306 394.071 34.9789C392.95 34.9789 391.91 34.9467 391.764 34.8822C391.488 34.7694 391.472 34.141 391.472 24.9237V15.0941H393.876C395.192 15.0941 396.703 15.1585 397.24 15.2552Z" fill="#181818"/>
<path d="M112.011 13.3979C112.011 13.559 111.686 13.6557 110.76 13.7202C108.875 13.8652 107.835 14.2197 107.461 14.8482C107.153 15.3477 107.136 15.7828 107.136 30.5433V45.739H106.568C105.95 45.739 105.902 45.8356 106.194 46.4641C106.357 46.8347 106.47 46.8669 107.315 46.8669H108.274L108.306 31.5746L108.355 16.2823L108.745 15.8633C109.232 15.3477 110.321 15.0093 111.946 14.8643L113.164 14.7515L113.116 14.0102C113.067 13.3012 113.051 13.269 112.547 13.2206C112.173 13.1884 112.011 13.2367 112.011 13.3979Z" fill="black"/>
<path d="M293.935 13.4342C293.87 13.4826 293.822 14.7878 293.822 16.3348V19.1225H293.172H292.522L292.798 19.6865C293.058 20.2505 293.09 20.2505 294.098 20.2505H295.121V17.1405C295.121 15.4485 295.073 13.8854 295.024 13.6759C294.943 13.4181 294.796 13.3214 294.488 13.3214C294.244 13.3214 293.984 13.3698 293.935 13.4342Z" fill="#121212"/>
<path d="M412.107 18.3812C412.107 18.4618 412.302 18.7358 412.529 19.0097C414.121 20.8951 414.869 24.2951 414.333 27.1634C413.244 32.7712 407.33 36.558 398.15 37.4765C397.175 37.5893 392.56 37.6537 387.15 37.6537H377.823V38.2177V38.7817H387.978C398.718 38.7817 400.051 38.7173 403.154 38.0405C407.655 37.0414 410.774 35.4783 413.049 33.0612C414.771 31.2403 415.681 28.8877 415.681 26.2611C415.681 23.8117 415.031 21.7491 413.683 20.0088C412.919 19.0097 412.107 18.1718 412.107 18.3812Z" fill="#121212"/>
<path d="M288.135 25.3266V30.0803H287.631C287.16 30.0803 287.144 30.0964 287.241 30.5959C287.42 31.3694 287.42 31.3694 288.476 31.3694H289.435V26.3257C289.435 23.5701 289.386 21.1369 289.337 20.9274C289.256 20.6535 289.11 20.5729 288.687 20.5729H288.135V25.3266Z" fill="#121212"/>
<path d="M45.5569 25.6769V27.8523H52.8684H60.18V25.6769V23.5015H52.8684H45.5569V25.6769Z" fill="#E3071D"/>
<path d="M374.801 25.7455C374.086 26.2772 373.469 26.8412 373.404 26.9863C373.355 27.1313 373.144 27.7597 372.949 28.3882C371.893 31.8044 368.838 34.8177 364.76 36.4614C361.576 37.7505 358.456 38.2339 354.183 38.0889C348.642 37.9116 344.938 36.7514 341.103 33.9798C340.583 33.5931 340.583 33.6253 341.266 34.3343C342.825 35.9779 346.026 37.686 348.967 38.4434C351.567 39.1202 353.598 39.3136 357.27 39.2169C360.146 39.1524 360.942 39.0719 362.388 38.7335C367.652 37.4927 371.503 34.9305 373.339 31.4176C373.583 30.9665 373.973 29.9835 374.216 29.2584C374.639 27.9531 374.688 27.8887 375.792 27.0507C376.426 26.5673 377.076 26.0839 377.255 25.955C377.563 25.7294 377.563 25.7294 377.255 25.5038C376.117 24.6819 376.199 24.6819 374.801 25.7455Z" fill="#121212"/>
<path d="M33.5659 26.0154L31.9086 27.079V32.3V37.5209H28.1716H24.4346V38.0849V38.6489H28.8215H33.2084V33.4118V28.1747L34.557 27.3046C35.2882 26.8373 36.1331 26.3055 36.4418 26.1121L36.9942 25.7898L36.1656 25.3709C35.7106 25.1453 35.3044 24.9519 35.2882 24.9519C35.2557 24.9519 34.492 25.4353 33.5659 26.0154Z" fill="black"/>
<path d="M61.1549 27.2884V28.9804H54.3957H47.6528L47.7016 29.4961L47.7503 30.0278L55.0294 30.0762L62.2922 30.1084V27.8524V25.5964H61.7235H61.1549V27.2884Z" fill="black"/>
<path d="M168.667 30.2212C168.635 30.3018 168.391 31.9616 168.131 33.9275L167.676 37.5209H152.111H136.545V38.0849V38.6489H152.712C164.053 38.6489 168.879 38.6006 168.879 38.4717C168.879 38.375 169.106 36.6669 169.366 34.6687C170 29.9634 170 30.1084 169.301 30.1084C168.992 30.1084 168.7 30.1568 168.667 30.2212Z" fill="black"/>
<path d="M80.3274 37.2792C80.3274 37.4887 79.385 37.5209 72.7721 37.5209H65.2168V38.0849V38.6489H73.3408H81.4647V37.9399C81.4647 37.3437 81.3997 37.2148 81.1073 37.1342C80.5223 36.9892 80.3274 37.0214 80.3274 37.2792Z" fill="black"/>
<path d="M133.621 37.3598C133.621 37.4726 130.533 37.5209 124.684 37.5209H115.748V38.0849V38.6489H125.253H134.758V37.9238C134.758 37.1987 134.758 37.1987 134.189 37.1987C133.88 37.1987 133.621 37.2631 133.621 37.3598Z" fill="black"/>
</g>
<defs>
<filter id="filter0_d_24_619" x="0" y="0" width="425.681" height="61" filterUnits="userSpaceOnUse" color-interpolation-filters="sRGB">
<feFlood flood-opacity="0" result="BackgroundImageFix"/>
<feColorMatrix in="SourceAlpha" type="matrix" values="0 0 0 0 0 0 0 0 0 0 0 0 0 0 0 0 0 0 127 0" result="hardAlpha"/>
<feOffset dy="4"/>
<feGaussianBlur stdDeviation="5"/>
<feComposite in2="hardAlpha" operator="out"/>
<feColorMatrix type="matrix" values="0 0 0 0 0 0 0 0 0 0 0 0 0 0 0 0 0 0 0.31 0"/>
<feBlend mode="normal" in2="BackgroundImageFix" result="effect1_dropShadow_24_619"/>
<feBlend mode="normal" in="SourceGraphic" in2="effect1_dropShadow_24_619" result="shape"/>
</filter>
</defs>
</svg>
